G04 This is an RS-274x file exported by *
G04 gerbv version 2.6A *
G04 More information is available about gerbv at *
G04 http://gerbv.geda-project.org/ *
G04 --End of header info--*
%MOIN*%
%FSLAX34Y34*%
%IPPOS*%
G04 --Define apertures--*
%ADD10C,0.1181*%
%ADD11C,0.0984*%
%ADD12O,0.0630X0.0630*%
%ADD13R,0.0630X0.0630*%
%ADD14R,0.0768X0.0768*%
%ADD15C,0.0768*%
%ADD16C,0.2150*%
%ADD17C,0.1866*%
%ADD18R,0.0413X0.0591*%
%ADD19O,0.0413X0.0591*%
%ADD20R,0.1260X0.1260*%
%ADD21O,0.1260X0.1260*%
%ADD22R,0.0787X0.0787*%
%ADD23C,0.0787*%
%ADD24C,0.0748*%
%ADD25C,0.0866*%
%ADD26C,0.0354*%
%ADD27C,0.0197*%
%ADD28C,0.0394*%
%ADD29C,0.0787*%
%ADD30C,0.0591*%
G04 --Start main section--*
G54D10*
G01X0063316Y-047583D03*
G54D11*
G01X0064083Y-049965D03*
G54D10*
G01X0068887Y-049965D03*
G01X0068906Y-045221D03*
G54D11*
G01X0064083Y-045241D03*
G54D10*
G01X0063306Y-039552D03*
G54D11*
G01X0064074Y-041934D03*
G54D10*
G01X0068877Y-041934D03*
G01X0068896Y-037190D03*
G54D11*
G01X0064074Y-037209D03*
G54D12*
G01X0056197Y-039677D03*
G01X0056197Y-040677D03*
G01X0056197Y-041677D03*
G01X0056197Y-042677D03*
G01X0056197Y-043677D03*
G01X0056197Y-044677D03*
G01X0056197Y-045677D03*
G01X0056197Y-046677D03*
G01X0056197Y-047677D03*
G01X0056197Y-048677D03*
G01X0056197Y-049677D03*
G01X0056197Y-050677D03*
G01X0056197Y-051677D03*
G01X0056197Y-052677D03*
G01X0056197Y-053677D03*
G01X0050197Y-053677D03*
G01X0050197Y-052677D03*
G01X0050197Y-051677D03*
G01X0050197Y-050677D03*
G01X0050197Y-049677D03*
G01X0050197Y-048677D03*
G01X0050197Y-047677D03*
G01X0050197Y-046677D03*
G01X0050197Y-045677D03*
G01X0050197Y-044677D03*
G01X0050197Y-043677D03*
G01X0050197Y-042677D03*
G01X0050197Y-041677D03*
G01X0050197Y-040677D03*
G54D13*
G01X0050197Y-039677D03*
G54D14*
G01X0073465Y-037583D03*
G54D15*
G01X0073465Y-039552D03*
G01X0073465Y-041520D03*
G54D13*
G01X0062795Y-032660D03*
G54D12*
G01X0062795Y-031660D03*
G01X0059795Y-031660D03*
G01X0059795Y-032660D03*
G54D15*
G01X0074083Y-031176D03*
G01X0074083Y-033144D03*
G54D16*
G01X0040864Y-027258D03*
G54D17*
G01X0038502Y-027258D03*
G01X0039683Y-029108D03*
G54D18*
G01X0053700Y-036231D03*
G54D19*
G01X0053200Y-036231D03*
G01X0052700Y-036231D03*
G54D13*
G01X0057656Y-037207D03*
G54D12*
G01X0057656Y-038207D03*
G01X0060656Y-038207D03*
G01X0060656Y-037207D03*
G54D20*
G01X0047697Y-036669D03*
G54D21*
G01X0047697Y-030669D03*
G54D22*
G01X0044906Y-027254D03*
G54D23*
G01X0044906Y-029223D03*
G54D14*
G01X0073465Y-045615D03*
G54D15*
G01X0073465Y-047583D03*
G01X0073465Y-049552D03*
G54D24*
G01X0039615Y-048164D03*
G01X0039615Y-049164D03*
G01X0039615Y-050164D03*
G01X0039615Y-051164D03*
G01X0039615Y-052164D03*
G01X0039615Y-053164D03*
G01X0048225Y-054164D03*
G01X0048225Y-053164D03*
G01X0048225Y-052164D03*
G01X0048225Y-051164D03*
G01X0048225Y-050164D03*
G01X0048225Y-049164D03*
G54D13*
G01X0057637Y-045231D03*
G54D12*
G01X0057637Y-046231D03*
G01X0060637Y-046231D03*
G01X0060637Y-045231D03*
G54D25*
G01X0044906Y-027254D03*
G01X0044906Y-029223D03*
G01X0039615Y-050164D03*
G01X0039615Y-049164D03*
G01X0039615Y-051164D03*
G01X0039615Y-052164D03*
G01X0050197Y-039677D03*
G01X0050197Y-040677D03*
G01X0050197Y-044677D03*
G01X0050206Y-046680D03*
G01X0050197Y-047677D03*
G01X0050197Y-048677D03*
G01X0037144Y-036393D03*
G54D26*
G01X0040629Y-043607D03*
G54D25*
G01X0042047Y-035551D03*
G01X0043706Y-036216D03*
G54D26*
G01X0068496Y-032652D03*
G54D27*
G01X0040629Y-043607D02*
G01X0037420Y-043607D01*
G54D28*
G01X0048631Y-043141D02*
G01X0049092Y-042680D01*
G54D27*
G01X0059795Y-031660D02*
G01X0058832Y-031660D01*
G54D29*
G01X0037144Y-043883D02*
G01X0037144Y-051223D01*
G54D28*
G01X0044906Y-029223D02*
G01X0046250Y-029223D01*
G54D27*
G01X0056868Y-038207D02*
G01X0054893Y-036231D01*
G54D28*
G01X0040314Y-053164D02*
G01X0048631Y-044847D01*
G54D27*
G01X0037420Y-043607D02*
G01X0037144Y-043883D01*
G54D29*
G01X0037144Y-051223D02*
G01X0039086Y-053164D01*
G01X0037144Y-036393D02*
G01X0037144Y-043883D01*
G54D28*
G01X0046250Y-029223D02*
G01X0047697Y-030669D01*
G01X0057656Y-039230D02*
G01X0057656Y-038207D01*
G54D27*
G01X0056731Y-033761D02*
G01X0054016Y-033760D01*
G01X0053700Y-034094D02*
G01X0053700Y-036231D01*
G54D28*
G01X0039615Y-053164D02*
G01X0040314Y-053164D01*
G54D27*
G01X0054016Y-033760D02*
G01X0053700Y-034094D01*
G01X0054893Y-036231D02*
G01X0053700Y-036231D01*
G54D28*
G01X0056206Y-040680D02*
G01X0057656Y-039230D01*
G54D27*
G01X0057656Y-038207D02*
G01X0056868Y-038207D01*
G54D28*
G01X0049092Y-042680D02*
G01X0050206Y-042680D01*
G54D29*
G01X0039086Y-053164D02*
G01X0039615Y-053164D01*
G54D28*
G01X0048631Y-044847D02*
G01X0048631Y-043141D01*
G54D27*
G01X0058832Y-031660D02*
G01X0056731Y-033761D01*
G54D28*
G01X0060656Y-037207D02*
G01X0059736Y-037207D01*
G01X0059034Y-042652D02*
G01X0059062Y-042680D01*
G01X0059059Y-042677D02*
G01X0059062Y-042680D01*
G01X0049447Y-029014D02*
G01X0047687Y-027254D01*
G01X0059034Y-037908D02*
G01X0059034Y-042652D01*
G01X0047687Y-027254D02*
G01X0044906Y-027254D01*
G01X0059062Y-042680D02*
G01X0060637Y-044255D01*
G01X0060637Y-044255D02*
G01X0060637Y-045231D01*
G01X0056197Y-042677D02*
G01X0055236Y-042677D01*
G54D30*
G01X0042047Y-035551D02*
G01X0043110Y-035551D01*
G54D28*
G01X0049449Y-036890D02*
G01X0049449Y-036654D01*
G01X0059736Y-037207D02*
G01X0059034Y-037908D01*
G01X0049449Y-036654D02*
G01X0049447Y-029014D01*
G54D30*
G01X0043839Y-034823D02*
G01X0043110Y-035551D01*
G01X0043839Y-027923D02*
G01X0044906Y-027254D01*
G01X0043839Y-027923D02*
G01X0043839Y-034823D01*
G54D28*
G01X0055236Y-042677D02*
G01X0049449Y-036890D01*
G01X0056197Y-042677D02*
G01X0059059Y-042677D01*
G01X0045748Y-036673D02*
G01X0045752Y-036669D01*
G01X0043706Y-036216D02*
G01X0045291Y-036216D01*
G01X0045291Y-036216D02*
G01X0045748Y-036673D01*
G01X0045752Y-036669D02*
G01X0047697Y-036669D01*
G54D29*
G01X0072755Y-037190D02*
G01X0073465Y-037583D01*
G01X0068896Y-037190D02*
G01X0072755Y-037190D01*
G01X0063306Y-039552D02*
G01X0073465Y-039552D01*
G01X0072735Y-041934D02*
G01X0073465Y-041520D01*
G01X0068877Y-041934D02*
G01X0072735Y-041934D01*
G01X0072735Y-049965D02*
G01X0073465Y-049552D01*
G01X0068887Y-049965D02*
G01X0072735Y-049965D01*
G01X0063316Y-047583D02*
G01X0073465Y-047583D01*
G01X0068906Y-045221D02*
G01X0072755Y-045221D01*
G01X0072755Y-045221D02*
G01X0073465Y-045615D01*
G54D27*
G01X0068496Y-032652D02*
G01X0064542Y-032652D01*
G01X0062795Y-031660D02*
G01X0063310Y-031660D01*
G01X0064302Y-032652D02*
G01X0064542Y-032652D01*
G01X0063310Y-031660D02*
G01X0064302Y-032652D01*
M02*
