M48
; DRILL file {KiCad (6.0.8)} date Thu Dec  8 23:12:28 2022
; FORMAT={-:-/ absolute / metric / decimal}
; #@! TF.CreationDate,2022-12-08T23:12:28+04:00
; #@! TF.GenerationSoftware,Kicad,Pcbnew,(6.0.8)
; #@! TF.FileFunction,MixedPlating,1,2
FMAT,2
METRIC
; #@! TA.AperFunction,Plated,PTH,ViaDrill
T1C0.700
; #@! TA.AperFunction,Plated,PTH,ComponentDrill
T2C0.750
; #@! TA.AperFunction,Plated,PTH,ComponentDrill
T3C0.800
; #@! TA.AperFunction,Plated,PTH,ComponentDrill
T4C0.900
; #@! TA.AperFunction,Plated,PTH,ComponentDrill
T5C1.000
; #@! TA.AperFunction,Plated,PTH,ComponentDrill
T6C1.300
; #@! TA.AperFunction,Plated,PTH,ViaDrill
T7C1.500
; #@! TA.AperFunction,Plated,PTH,ComponentDrill
T8C1.600
; #@! TA.AperFunction,Plated,PTH,ComponentDrill
T9C3.160
; #@! TA.AperFunction,Plated,PTH,ComponentDrill
T10C3.640
; #@! TA.AperFunction,NonPlated,NPTH,ComponentDrill
T11C2.700
%
G90
G05
T1
X103.197Y-110.762
X173.98Y-82.937
T2
X133.857Y-92.027
X135.127Y-92.027
X136.397Y-92.027
T3
X146.397Y-114.887
X146.397Y-117.427
X146.445Y-94.505
X146.445Y-97.045
X151.88Y-80.417
X151.88Y-82.957
X154.017Y-114.887
X154.017Y-117.427
X154.065Y-94.505
X154.065Y-97.045
X159.5Y-80.417
X159.5Y-82.957
T4
X100.622Y-122.337
X100.622Y-124.877
X100.622Y-127.417
X100.622Y-129.957
X100.622Y-132.497
X100.622Y-135.037
X122.492Y-124.877
X122.492Y-127.417
X122.492Y-129.957
X122.492Y-132.497
X122.492Y-135.037
X122.492Y-137.577
T5
X114.06Y-69.225
X114.06Y-74.225
X127.5Y-100.78
X127.5Y-103.32
X127.5Y-105.86
X127.5Y-108.4
X127.5Y-110.94
X127.5Y-113.48
X127.5Y-116.02
X127.5Y-118.56
X127.5Y-121.1
X127.5Y-123.64
X127.5Y-126.18
X127.5Y-128.72
X127.5Y-131.26
X127.5Y-133.8
X127.5Y-136.34
X142.74Y-100.78
X142.74Y-103.32
X142.74Y-105.86
X142.74Y-108.4
X142.74Y-110.94
X142.74Y-113.48
X142.74Y-116.02
X142.74Y-118.56
X142.74Y-121.1
X142.74Y-123.64
X142.74Y-126.18
X142.74Y-128.72
X142.74Y-131.26
X142.74Y-133.8
X142.74Y-136.34
X162.747Y-94.512
X162.747Y-106.512
X162.772Y-114.912
X162.772Y-126.912
T6
X160.797Y-100.462
X160.822Y-120.862
X174.947Y-106.512
X174.972Y-126.912
X174.997Y-94.462
X175.022Y-114.862
X186.6Y-95.462
X186.6Y-100.462
X186.6Y-105.462
X186.6Y-115.862
X186.6Y-120.862
X186.6Y-125.862
X188.172Y-79.187
X188.172Y-84.187
T7
X94.347Y-92.437
X100.622Y-124.877
X100.622Y-127.417
X100.622Y-129.957
X100.622Y-132.497
X106.8Y-90.3
X111.012Y-91.988
X114.06Y-69.225
X114.06Y-74.225
X127.5Y-100.78
X127.5Y-103.32
X127.5Y-113.48
X127.5Y-121.1
X127.5Y-123.64
X127.522Y-118.567
T8
X121.15Y-77.9
X121.15Y-93.14
T9
X97.795Y-69.235
X100.795Y-73.935
T10
X103.795Y-69.235
T11
X168.15Y-66.5
X168.15Y-138.1
T0
M30
