G04 #@! TF.GenerationSoftware,KiCad,Pcbnew,(6.0.8)*
G04 #@! TF.CreationDate,2022-12-08T23:12:20+04:00*
G04 #@! TF.ProjectId,SIM800_NANO,53494d38-3030-45f4-9e41-4e4f2e6b6963,rev?*
G04 #@! TF.SameCoordinates,Original*
G04 #@! TF.FileFunction,Soldermask,Top*
G04 #@! TF.FilePolarity,Negative*
%FSLAX46Y46*%
G04 Gerber Fmt 4.6, Leading zero omitted, Abs format (unit mm)*
G04 Created by KiCad (PCBNEW (6.0.8)) date 2022-12-08 23:12:20*
%MOMM*%
%LPD*%
G01*
G04 APERTURE LIST*
G04 Aperture macros list*
%AMRoundRect*
0 Rectangle with rounded corners*
0 $1 Rounding radius*
0 $2 $3 $4 $5 $6 $7 $8 $9 X,Y pos of 4 corners*
0 Add a 4 corners polygon primitive as box body*
4,1,4,$2,$3,$4,$5,$6,$7,$8,$9,$2,$3,0*
0 Add four circle primitives for the rounded corners*
1,1,$1+$1,$2,$3*
1,1,$1+$1,$4,$5*
1,1,$1+$1,$6,$7*
1,1,$1+$1,$8,$9*
0 Add four rect primitives between the rounded corners*
20,1,$1+$1,$2,$3,$4,$5,0*
20,1,$1+$1,$4,$5,$6,$7,0*
20,1,$1+$1,$6,$7,$8,$9,0*
20,1,$1+$1,$8,$9,$2,$3,0*%
G04 Aperture macros list end*
%ADD10RoundRect,0.250000X-0.312500X-0.625000X0.312500X-0.625000X0.312500X0.625000X-0.312500X0.625000X0*%
%ADD11RoundRect,0.150000X-0.587500X-0.150000X0.587500X-0.150000X0.587500X0.150000X-0.587500X0.150000X0*%
%ADD12RoundRect,0.250000X-0.475000X0.250000X-0.475000X-0.250000X0.475000X-0.250000X0.475000X0.250000X0*%
%ADD13C,3.000000*%
%ADD14C,2.500000*%
%ADD15RoundRect,0.250000X0.475000X-0.250000X0.475000X0.250000X-0.475000X0.250000X-0.475000X-0.250000X0*%
%ADD16RoundRect,0.250000X0.450000X-0.262500X0.450000X0.262500X-0.450000X0.262500X-0.450000X-0.262500X0*%
%ADD17RoundRect,0.250000X-0.262500X-0.450000X0.262500X-0.450000X0.262500X0.450000X-0.262500X0.450000X0*%
%ADD18R,4.600000X1.100000*%
%ADD19R,9.400000X10.800000*%
%ADD20C,2.700000*%
%ADD21RoundRect,0.250000X1.000000X-1.750000X1.000000X1.750000X-1.000000X1.750000X-1.000000X-1.750000X0*%
%ADD22RoundRect,0.250000X-0.425000X0.450000X-0.425000X-0.450000X0.425000X-0.450000X0.425000X0.450000X0*%
%ADD23R,1.600000X1.400000*%
%ADD24O,1.600000X1.600000*%
%ADD25R,1.600000X1.600000*%
%ADD26R,1.950000X1.950000*%
%ADD27C,1.950000*%
%ADD28RoundRect,0.250000X-0.450000X0.262500X-0.450000X-0.262500X0.450000X-0.262500X0.450000X0.262500X0*%
%ADD29C,5.460000*%
%ADD30C,4.740000*%
%ADD31R,1.050000X1.500000*%
%ADD32O,1.050000X1.500000*%
%ADD33RoundRect,0.250000X0.262500X0.450000X-0.262500X0.450000X-0.262500X-0.450000X0.262500X-0.450000X0*%
%ADD34R,3.200000X3.200000*%
%ADD35O,3.200000X3.200000*%
%ADD36R,1.000000X1.000000*%
%ADD37RoundRect,0.250000X0.650000X-0.325000X0.650000X0.325000X-0.650000X0.325000X-0.650000X-0.325000X0*%
%ADD38R,2.000000X2.000000*%
%ADD39C,2.000000*%
%ADD40RoundRect,0.250000X-1.000000X1.750000X-1.000000X-1.750000X1.000000X-1.750000X1.000000X1.750000X0*%
%ADD41C,1.900000*%
%ADD42R,5.400000X2.900000*%
%ADD43R,1.850000X0.950000*%
G04 APERTURE END LIST*
D10*
X163793500Y-80417000D03*
X166718500Y-80417000D03*
D11*
X155309500Y-122862000D03*
X155309500Y-124762000D03*
X157184500Y-123812000D03*
D12*
X115800000Y-85150000D03*
X115800000Y-87050000D03*
D13*
X160822000Y-120862000D03*
D14*
X162772000Y-126912000D03*
D13*
X174972000Y-126912000D03*
X175022000Y-114862000D03*
D14*
X162772000Y-114912000D03*
D13*
X160797000Y-100462000D03*
D14*
X162747000Y-106512000D03*
D13*
X174947000Y-106512000D03*
X174997000Y-94462000D03*
D14*
X162747000Y-94512000D03*
D11*
X155334500Y-102487000D03*
X155334500Y-104387000D03*
X157209500Y-103437000D03*
D15*
X113700000Y-87050000D03*
X113700000Y-85150000D03*
D16*
X146397000Y-112449500D03*
X146397000Y-110624500D03*
D17*
X133859500Y-88562000D03*
X135684500Y-88562000D03*
D18*
X106839000Y-88328000D03*
X106839000Y-86628000D03*
D19*
X97689000Y-84928000D03*
D18*
X106839000Y-84928000D03*
X106839000Y-83228000D03*
X106839000Y-81528000D03*
D16*
X153047000Y-101937000D03*
X153047000Y-100112000D03*
D20*
X168150000Y-138100000D03*
D21*
X97622000Y-104219500D03*
X97622000Y-96219500D03*
D22*
X121172000Y-69312000D03*
X121172000Y-72012000D03*
D23*
X105222000Y-110762000D03*
X112422000Y-110762000D03*
X112422000Y-113762000D03*
X105222000Y-113762000D03*
D24*
X142740000Y-100780000D03*
X142740000Y-103320000D03*
X142740000Y-105860000D03*
X142740000Y-108400000D03*
X142740000Y-110940000D03*
X142740000Y-113480000D03*
X142740000Y-116020000D03*
X142740000Y-118560000D03*
X142740000Y-121100000D03*
X142740000Y-123640000D03*
X142740000Y-126180000D03*
X142740000Y-128720000D03*
X142740000Y-131260000D03*
X142740000Y-133800000D03*
X142740000Y-136340000D03*
X127500000Y-136340000D03*
X127500000Y-133800000D03*
X127500000Y-131260000D03*
X127500000Y-128720000D03*
X127500000Y-126180000D03*
X127500000Y-123640000D03*
X127500000Y-121100000D03*
X127500000Y-118560000D03*
X127500000Y-116020000D03*
X127500000Y-113480000D03*
X127500000Y-110940000D03*
X127500000Y-108400000D03*
X127500000Y-105860000D03*
X127500000Y-103320000D03*
D25*
X127500000Y-100780000D03*
D10*
X168873500Y-80417000D03*
X171798500Y-80417000D03*
D26*
X186600000Y-95462000D03*
D27*
X186600000Y-100462000D03*
X186600000Y-105462000D03*
D25*
X159500000Y-82957000D03*
D24*
X159500000Y-80417000D03*
X151880000Y-80417000D03*
X151880000Y-82957000D03*
D28*
X144100000Y-81137500D03*
X144100000Y-82962500D03*
D27*
X188172000Y-79187000D03*
X188172000Y-84187000D03*
D29*
X103795000Y-69235000D03*
D30*
X97795000Y-69235000D03*
X100795000Y-73935000D03*
D31*
X136397000Y-92027000D03*
D32*
X135127000Y-92027000D03*
X133857000Y-92027000D03*
D25*
X146445000Y-94505000D03*
D24*
X146445000Y-97045000D03*
X154065000Y-97045000D03*
X154065000Y-94505000D03*
D33*
X115668500Y-83226000D03*
X113843500Y-83226000D03*
D16*
X146445000Y-92055000D03*
X146445000Y-90230000D03*
D20*
X168150000Y-66500000D03*
D34*
X121150000Y-93140000D03*
D35*
X121150000Y-77900000D03*
D16*
X153000000Y-122350000D03*
X153000000Y-120525000D03*
D36*
X157172000Y-116062000D03*
X157172000Y-118562000D03*
D16*
X124450000Y-100762500D03*
X124450000Y-98937500D03*
D28*
X126950000Y-93837500D03*
X126950000Y-95662500D03*
D37*
X147495000Y-82950000D03*
X147495000Y-80000000D03*
D36*
X157197000Y-95655000D03*
X157197000Y-98155000D03*
D38*
X114060000Y-69225323D03*
D39*
X114060000Y-74225323D03*
D26*
X186600000Y-115862000D03*
D27*
X186600000Y-120862000D03*
X186600000Y-125862000D03*
D40*
X129622000Y-67212000D03*
X129622000Y-75212000D03*
D17*
X113843500Y-81194000D03*
X115668500Y-81194000D03*
D41*
X100622000Y-122337000D03*
X100622000Y-124877000D03*
X100622000Y-127417000D03*
X100622000Y-129957000D03*
X100622000Y-132497000D03*
X100622000Y-135037000D03*
X122492000Y-137577000D03*
X122492000Y-135037000D03*
X122492000Y-132497000D03*
X122492000Y-129957000D03*
X122492000Y-127417000D03*
X122492000Y-124877000D03*
D25*
X146397000Y-114887000D03*
D24*
X146397000Y-117427000D03*
X154017000Y-117427000D03*
X154017000Y-114887000D03*
D42*
X111012000Y-94556000D03*
X111012000Y-104256000D03*
D43*
X175947000Y-80437000D03*
X175947000Y-82937000D03*
X181997000Y-82937000D03*
X181997000Y-80437000D03*
M02*
