G04 #@! TF.GenerationSoftware,KiCad,Pcbnew,(6.0.8)*
G04 #@! TF.CreationDate,2022-12-08T23:12:20+04:00*
G04 #@! TF.ProjectId,SIM800_NANO,53494d38-3030-45f4-9e41-4e4f2e6b6963,rev?*
G04 #@! TF.SameCoordinates,Original*
G04 #@! TF.FileFunction,Soldermask,Bot*
G04 #@! TF.FilePolarity,Negative*
%FSLAX46Y46*%
G04 Gerber Fmt 4.6, Leading zero omitted, Abs format (unit mm)*
G04 Created by KiCad (PCBNEW (6.0.8)) date 2022-12-08 23:12:20*
%MOMM*%
%LPD*%
G01*
G04 APERTURE LIST*
%ADD10C,3.000000*%
%ADD11C,2.500000*%
%ADD12C,2.700000*%
%ADD13O,1.600000X1.600000*%
%ADD14R,1.600000X1.600000*%
%ADD15R,1.950000X1.950000*%
%ADD16C,1.950000*%
%ADD17C,5.460000*%
%ADD18C,4.740000*%
%ADD19R,1.050000X1.500000*%
%ADD20O,1.050000X1.500000*%
%ADD21R,3.200000X3.200000*%
%ADD22O,3.200000X3.200000*%
%ADD23R,2.000000X2.000000*%
%ADD24C,2.000000*%
%ADD25C,1.900000*%
G04 APERTURE END LIST*
D10*
X160822000Y-120862000D03*
D11*
X162772000Y-126912000D03*
D10*
X174972000Y-126912000D03*
X175022000Y-114862000D03*
D11*
X162772000Y-114912000D03*
D10*
X160797000Y-100462000D03*
D11*
X162747000Y-106512000D03*
D10*
X174947000Y-106512000D03*
X174997000Y-94462000D03*
D11*
X162747000Y-94512000D03*
D12*
X168150000Y-138100000D03*
D13*
X142740000Y-100780000D03*
X142740000Y-103320000D03*
X142740000Y-105860000D03*
X142740000Y-108400000D03*
X142740000Y-110940000D03*
X142740000Y-113480000D03*
X142740000Y-116020000D03*
X142740000Y-118560000D03*
X142740000Y-121100000D03*
X142740000Y-123640000D03*
X142740000Y-126180000D03*
X142740000Y-128720000D03*
X142740000Y-131260000D03*
X142740000Y-133800000D03*
X142740000Y-136340000D03*
X127500000Y-136340000D03*
X127500000Y-133800000D03*
X127500000Y-131260000D03*
X127500000Y-128720000D03*
X127500000Y-126180000D03*
X127500000Y-123640000D03*
X127500000Y-121100000D03*
X127500000Y-118560000D03*
X127500000Y-116020000D03*
X127500000Y-113480000D03*
X127500000Y-110940000D03*
X127500000Y-108400000D03*
X127500000Y-105860000D03*
X127500000Y-103320000D03*
D14*
X127500000Y-100780000D03*
D15*
X186600000Y-95462000D03*
D16*
X186600000Y-100462000D03*
X186600000Y-105462000D03*
D14*
X159500000Y-82957000D03*
D13*
X159500000Y-80417000D03*
X151880000Y-80417000D03*
X151880000Y-82957000D03*
D16*
X188172000Y-79187000D03*
X188172000Y-84187000D03*
D17*
X103795000Y-69235000D03*
D18*
X97795000Y-69235000D03*
X100795000Y-73935000D03*
D19*
X136397000Y-92027000D03*
D20*
X135127000Y-92027000D03*
X133857000Y-92027000D03*
D14*
X146445000Y-94505000D03*
D13*
X146445000Y-97045000D03*
X154065000Y-97045000D03*
X154065000Y-94505000D03*
D12*
X168150000Y-66500000D03*
D21*
X121150000Y-93140000D03*
D22*
X121150000Y-77900000D03*
D23*
X114060000Y-69225323D03*
D24*
X114060000Y-74225323D03*
D15*
X186600000Y-115862000D03*
D16*
X186600000Y-120862000D03*
X186600000Y-125862000D03*
D25*
X100622000Y-122337000D03*
X100622000Y-124877000D03*
X100622000Y-127417000D03*
X100622000Y-129957000D03*
X100622000Y-132497000D03*
X100622000Y-135037000D03*
X122492000Y-137577000D03*
X122492000Y-135037000D03*
X122492000Y-132497000D03*
X122492000Y-129957000D03*
X122492000Y-127417000D03*
X122492000Y-124877000D03*
D14*
X146397000Y-114887000D03*
D13*
X146397000Y-117427000D03*
X154017000Y-117427000D03*
X154017000Y-114887000D03*
M02*
