G04 This is an RS-274x file exported by *
G04 gerbv version 2.6A *
G04 More information is available about gerbv at *
G04 http://gerbv.geda-project.org/ *
G04 --End of header info--*
%MOIN*%
%FSLAX34Y34*%
%IPPOS*%
G04 --Define apertures--*
%ADD10R,0.0394X0.0394*%
%AMMACRO11*
4,1,4,-0.068898,-0.039370,0.068898,-0.039370,0.068898,0.039370,-0.068898,0.039370,-0.068898,-0.039370,0.000000*
1,1,0.019685,-0.068898,-0.039370*
1,1,0.019685,0.068898,-0.039370*
1,1,0.019685,0.068898,0.039370*
1,1,0.019685,-0.068898,0.039370*
20,1,0.019685,-0.068898,-0.039370,0.068898,-0.039370,0.000000*
20,1,0.019685,0.068898,-0.039370,0.068898,0.039370,0.000000*
20,1,0.019685,0.068898,0.039370,-0.068898,0.039370,0.000000*
20,1,0.019685,-0.068898,0.039370,-0.068898,-0.039370,0.000000*
%
%ADD11MACRO11*%
%AMMACRO12*
4,1,4,-0.036417,0.031004,-0.036417,-0.031004,0.036417,-0.031004,0.036417,0.031004,-0.036417,0.031004,0.000000*
1,1,0.019685,-0.036417,0.031004*
1,1,0.019685,-0.036417,-0.031004*
1,1,0.019685,0.036417,-0.031004*
1,1,0.019685,0.036417,0.031004*
20,1,0.019685,-0.036417,0.031004,-0.036417,-0.031004,0.000000*
20,1,0.019685,-0.036417,-0.031004,0.036417,-0.031004,0.000000*
20,1,0.019685,0.036417,-0.031004,0.036417,0.031004,0.000000*
20,1,0.019685,0.036417,0.031004,-0.036417,0.031004,0.000000*
%
%ADD12MACRO12*%
%AMMACRO13*
4,1,4,0.017717,-0.010335,0.017717,0.010335,-0.017717,0.010335,-0.017717,-0.010335,0.017717,-0.010335,0.000000*
1,1,0.019685,0.017717,-0.010335*
1,1,0.019685,0.017717,0.010335*
1,1,0.019685,-0.017717,0.010335*
1,1,0.019685,-0.017717,-0.010335*
20,1,0.019685,0.017717,-0.010335,0.017717,0.010335,0.000000*
20,1,0.019685,0.017717,0.010335,-0.017717,0.010335,0.000000*
20,1,0.019685,-0.017717,0.010335,-0.017717,-0.010335,0.000000*
20,1,0.019685,-0.017717,-0.010335,0.017717,-0.010335,0.000000*
%
%ADD13MACRO13*%
%AMMACRO14*
4,1,4,0.018701,-0.009843,0.018701,0.009843,-0.018701,0.009843,-0.018701,-0.009843,0.018701,-0.009843,0.000000*
1,1,0.019685,0.018701,-0.009843*
1,1,0.019685,0.018701,0.009843*
1,1,0.019685,-0.018701,0.009843*
1,1,0.019685,-0.018701,-0.009843*
20,1,0.019685,0.018701,-0.009843,0.018701,0.009843,0.000000*
20,1,0.019685,0.018701,0.009843,-0.018701,0.009843,0.000000*
20,1,0.019685,-0.018701,0.009843,-0.018701,-0.009843,0.000000*
20,1,0.019685,-0.018701,-0.009843,0.018701,-0.009843,0.000000*
%
%ADD14MACRO14*%
%ADD15R,0.0768X0.0768*%
%ADD16C,0.0768*%
%AMMACRO17*
4,1,4,0.010335,0.017717,-0.010335,0.017717,-0.010335,-0.017717,0.010335,-0.017717,0.010335,0.017717,0.000000*
1,1,0.019685,0.010335,0.017717*
1,1,0.019685,-0.010335,0.017717*
1,1,0.019685,-0.010335,-0.017717*
1,1,0.019685,0.010335,-0.017717*
20,1,0.019685,0.010335,0.017717,-0.010335,0.017717,0.000000*
20,1,0.019685,-0.010335,0.017717,-0.010335,-0.017717,0.000000*
20,1,0.019685,-0.010335,-0.017717,0.010335,-0.017717,0.000000*
20,1,0.019685,0.010335,-0.017717,0.010335,0.017717,0.000000*
%
%ADD17MACRO17*%
%ADD18R,0.0630X0.0630*%
%ADD19O,0.0630X0.0630*%
%ADD20R,0.1811X0.0433*%
%ADD21R,0.3701X0.4252*%
%ADD22C,0.0748*%
%AMMACRO23*
4,1,4,-0.039370,0.068898,-0.039370,-0.068898,0.039370,-0.068898,0.039370,0.068898,-0.039370,0.068898,0.000000*
1,1,0.019685,-0.039370,0.068898*
1,1,0.019685,-0.039370,-0.068898*
1,1,0.019685,0.039370,-0.068898*
1,1,0.019685,0.039370,0.068898*
20,1,0.019685,-0.039370,0.068898,-0.039370,-0.068898,0.000000*
20,1,0.019685,-0.039370,-0.068898,0.039370,-0.068898,0.000000*
20,1,0.019685,0.039370,-0.068898,0.039370,0.068898,0.000000*
20,1,0.019685,0.039370,0.068898,-0.039370,0.068898,0.000000*
%
%ADD23MACRO23*%
%ADD24C,0.1181*%
%ADD25C,0.0984*%
%ADD26R,0.0591X0.0413*%
%ADD27O,0.0591X0.0413*%
%AMMACRO28*
4,1,4,-0.017717,0.010335,-0.017717,-0.010335,0.017717,-0.010335,0.017717,0.010335,-0.017717,0.010335,0.000000*
1,1,0.019685,-0.017717,0.010335*
1,1,0.019685,-0.017717,-0.010335*
1,1,0.019685,0.017717,-0.010335*
1,1,0.019685,0.017717,0.010335*
20,1,0.019685,-0.017717,0.010335,-0.017717,-0.010335,0.000000*
20,1,0.019685,-0.017717,-0.010335,0.017717,-0.010335,0.000000*
20,1,0.019685,0.017717,-0.010335,0.017717,0.010335,0.000000*
20,1,0.019685,0.017717,0.010335,-0.017717,0.010335,0.000000*
%
%ADD28MACRO28*%
%ADD29R,0.0787X0.0787*%
%ADD30C,0.0787*%
%AMMACRO31*
4,1,4,-0.023130,-0.005906,0.023130,-0.005906,0.023130,0.005906,-0.023130,0.005906,-0.023130,-0.005906,0.000000*
1,1,0.011811,-0.023130,-0.005906*
1,1,0.011811,0.023130,-0.005906*
1,1,0.011811,0.023130,0.005906*
1,1,0.011811,-0.023130,0.005906*
20,1,0.011811,-0.023130,-0.005906,0.023130,-0.005906,0.000000*
20,1,0.011811,0.023130,-0.005906,0.023130,0.005906,0.000000*
20,1,0.011811,0.023130,0.005906,-0.023130,0.005906,0.000000*
20,1,0.011811,-0.023130,0.005906,-0.023130,-0.005906,0.000000*
%
%ADD31MACRO31*%
%AMMACRO32*
4,1,4,0.025591,-0.012795,0.025591,0.012795,-0.025591,0.012795,-0.025591,-0.012795,0.025591,-0.012795,0.000000*
1,1,0.019685,0.025591,-0.012795*
1,1,0.019685,0.025591,0.012795*
1,1,0.019685,-0.025591,0.012795*
1,1,0.019685,-0.025591,-0.012795*
20,1,0.019685,0.025591,-0.012795,0.025591,0.012795,0.000000*
20,1,0.019685,0.025591,0.012795,-0.025591,0.012795,0.000000*
20,1,0.019685,-0.025591,0.012795,-0.025591,-0.012795,0.000000*
20,1,0.019685,-0.025591,-0.012795,0.025591,-0.012795,0.000000*
%
%ADD32MACRO32*%
%ADD33R,0.2126X0.1142*%
%ADD34R,0.0728X0.0374*%
%AMMACRO35*
4,1,4,-0.012303,-0.024606,0.012303,-0.024606,0.012303,0.024606,-0.012303,0.024606,-0.012303,-0.024606,0.000000*
1,1,0.019685,-0.012303,-0.024606*
1,1,0.019685,0.012303,-0.024606*
1,1,0.019685,0.012303,0.024606*
1,1,0.019685,-0.012303,0.024606*
20,1,0.019685,-0.012303,-0.024606,0.012303,-0.024606,0.000000*
20,1,0.019685,0.012303,-0.024606,0.012303,0.024606,0.000000*
20,1,0.019685,0.012303,0.024606,-0.012303,0.024606,0.000000*
20,1,0.019685,-0.012303,0.024606,-0.012303,-0.024606,0.000000*
%
%ADD35MACRO35*%
%ADD36R,0.1260X0.1260*%
%ADD37O,0.1260X0.1260*%
%ADD38R,0.0551X0.0630*%
%ADD39C,0.2150*%
%ADD40C,0.1866*%
%ADD41C,0.0866*%
%ADD42C,0.0354*%
%ADD43C,0.0197*%
%ADD44C,0.0394*%
%ADD45C,0.0787*%
%ADD46C,0.0098*%
G04 --Start main section--*
G54D10*
G01X0062672Y-045695D03*
G01X0062672Y-046679D03*
G54D11*
G01X0052173Y-035799D03*
G01X0055323Y-035799D03*
G54D12*
G01X0052114Y-025586D03*
G01X0052114Y-027525D03*
G54D13*
G01X0061030Y-048170D03*
G01X0061030Y-047452D03*
G54D14*
G01X0053783Y-028921D03*
G01X0053783Y-028173D03*
G54D15*
G01X0074264Y-037583D03*
G54D16*
G01X0074264Y-039552D03*
G01X0074264Y-041520D03*
G54D17*
G01X0052899Y-028878D03*
G01X0052180Y-028878D03*
G54D18*
G01X0062313Y-032815D03*
G54D19*
G01X0062313Y-031815D03*
G01X0059313Y-031815D03*
G01X0059313Y-032815D03*
G54D20*
G01X0056028Y-025827D03*
G01X0056028Y-026496D03*
G01X0056028Y-027165D03*
G54D21*
G01X0059630Y-027165D03*
G54D20*
G01X0056028Y-027835D03*
G01X0056028Y-028504D03*
G54D22*
G01X0037598Y-044232D03*
G01X0038598Y-044232D03*
G01X0039598Y-044232D03*
G01X0040598Y-044232D03*
G01X0041598Y-044232D03*
G01X0042598Y-044232D03*
G01X0043598Y-035622D03*
G01X0042598Y-035622D03*
G01X0041598Y-035622D03*
G01X0040598Y-035622D03*
G01X0039598Y-035622D03*
G01X0038598Y-035622D03*
G54D18*
G01X0058449Y-045232D03*
G54D19*
G01X0058449Y-046232D03*
G01X0061449Y-046232D03*
G01X0061449Y-045232D03*
G54D23*
G01X0049004Y-025827D03*
G01X0049004Y-028976D03*
G54D24*
G01X0064105Y-039552D03*
G54D25*
G01X0064873Y-041934D03*
G54D24*
G01X0069676Y-041934D03*
G01X0069696Y-037190D03*
G54D25*
G01X0064873Y-037209D03*
G54D26*
G01X0038898Y-055098D03*
G54D27*
G01X0038898Y-054598D03*
G01X0038898Y-054098D03*
G54D28*
G01X0040709Y-053893D03*
G01X0040709Y-054611D03*
G54D16*
G01X0075047Y-031177D03*
G01X0075047Y-033146D03*
G54D24*
G01X0064109Y-047585D03*
G54D25*
G01X0064877Y-049967D03*
G54D24*
G01X0069680Y-049967D03*
G01X0069700Y-045222D03*
G54D25*
G01X0064877Y-045242D03*
G54D29*
G01X0044567Y-025830D03*
G54D30*
G01X0044567Y-027798D03*
G54D18*
G01X0058455Y-037207D03*
G54D19*
G01X0058455Y-038207D03*
G01X0061455Y-038207D03*
G01X0061455Y-037207D03*
G54D31*
G01X0061939Y-048372D03*
G01X0061939Y-049120D03*
G01X0062677Y-048746D03*
G54D32*
G01X0057945Y-032825D03*
G01X0057945Y-031663D03*
G54D17*
G01X0057556Y-037201D03*
G01X0056838Y-037201D03*
G01X0057462Y-045232D03*
G01X0056743Y-045232D03*
G54D13*
G01X0061054Y-040133D03*
G01X0061054Y-039414D03*
G01X0052898Y-030375D03*
G01X0052898Y-029656D03*
G54D15*
G01X0074258Y-045616D03*
G54D16*
G01X0074258Y-047585D03*
G01X0074258Y-049553D03*
G54D33*
G01X0048327Y-031988D03*
G01X0048327Y-035807D03*
G54D34*
G01X0069270Y-031668D03*
G01X0069270Y-032652D03*
G01X0071652Y-032652D03*
G01X0071652Y-031668D03*
G54D14*
G01X0053783Y-030378D03*
G01X0053783Y-029630D03*
G54D35*
G01X0066452Y-031673D03*
G01X0067603Y-031673D03*
G54D10*
G01X0062688Y-037659D03*
G01X0062688Y-038644D03*
G54D36*
G01X0044388Y-033602D03*
G54D37*
G01X0038388Y-033602D03*
G54D35*
G01X0063991Y-031673D03*
G01X0065143Y-031673D03*
G54D38*
G01X0047717Y-039350D03*
G01X0047717Y-042185D03*
G01X0046535Y-039350D03*
G01X0046535Y-042185D03*
G54D17*
G01X0047950Y-045189D03*
G01X0047231Y-045189D03*
G54D13*
G01X0046173Y-045367D03*
G01X0046173Y-044649D03*
G54D31*
G01X0061955Y-040349D03*
G01X0061955Y-041097D03*
G01X0062693Y-040723D03*
G54D39*
G01X0040354Y-029100D03*
G54D40*
G01X0037992Y-029100D03*
G01X0039173Y-030951D03*
G54D18*
G01X0051181Y-046457D03*
G54D19*
G01X0050181Y-046457D03*
G01X0049181Y-046457D03*
G01X0048181Y-046457D03*
G01X0047181Y-046457D03*
G01X0046181Y-046457D03*
G01X0045181Y-046457D03*
G01X0044181Y-046457D03*
G01X0043181Y-046457D03*
G01X0042181Y-046457D03*
G01X0041181Y-046457D03*
G01X0040181Y-046457D03*
G01X0039181Y-046457D03*
G01X0038181Y-046457D03*
G01X0037181Y-046457D03*
G01X0037181Y-052457D03*
G01X0038181Y-052457D03*
G01X0039181Y-052457D03*
G01X0040181Y-052457D03*
G01X0041181Y-052457D03*
G01X0042181Y-052457D03*
G01X0043181Y-052457D03*
G01X0044181Y-052457D03*
G01X0045181Y-052457D03*
G01X0046181Y-052457D03*
G01X0047181Y-052457D03*
G01X0048181Y-052457D03*
G01X0049181Y-052457D03*
G01X0050181Y-052457D03*
G01X0051181Y-052457D03*
G54D13*
G01X0057953Y-034273D03*
G01X0057953Y-033554D03*
G54D41*
G01X0059313Y-031815D03*
G01X0050181Y-052457D03*
G01X0042598Y-044232D03*
G01X0044567Y-027798D03*
G01X0048181Y-046457D03*
G01X0058449Y-046232D03*
G01X0058455Y-038207D03*
G01X0059313Y-032815D03*
G01X0043181Y-046457D03*
G01X0042181Y-046457D03*
G01X0037181Y-052457D03*
G01X0061449Y-045232D03*
G01X0061457Y-037209D03*
G01X0044567Y-025830D03*
G01X0062313Y-031815D03*
G54D42*
G01X0067642Y-032654D03*
G54D41*
G01X0072736Y-033150D03*
G01X0072733Y-031176D03*
G01X0038598Y-044232D03*
G01X0054390Y-026496D03*
G01X0062313Y-032815D03*
G01X0058455Y-037207D03*
G01X0061455Y-038207D03*
G01X0040598Y-044232D03*
G01X0058449Y-045232D03*
G01X0061449Y-046232D03*
G01X0039598Y-044232D03*
G01X0046181Y-046457D03*
G54D43*
G01X0052180Y-028878D02*
G01X0052180Y-027591D01*
G54D44*
G01X0059991Y-049120D02*
G01X0058449Y-047578D01*
G54D43*
G01X0047539Y-055098D02*
G01X0050181Y-052457D01*
G54D44*
G01X0053318Y-027525D02*
G01X0052114Y-027525D01*
G54D43*
G01X0057945Y-031663D02*
G01X0056132Y-031663D01*
G01X0052906Y-039350D02*
G01X0047717Y-039350D01*
G54D44*
G01X0058449Y-046232D02*
G01X0058894Y-046232D01*
G01X0058455Y-039447D02*
G01X0058455Y-038207D01*
G01X0056028Y-027165D02*
G01X0059630Y-027165D01*
G01X0058449Y-047578D02*
G01X0058449Y-046232D01*
G01X0050456Y-027525D02*
G01X0049004Y-028976D01*
G01X0059657Y-037449D02*
G01X0058900Y-038207D01*
G01X0058020Y-035094D02*
G01X0059657Y-036732D01*
G01X0054980Y-027165D02*
G01X0054843Y-027303D01*
G01X0060105Y-041097D02*
G01X0058455Y-039447D01*
G01X0056028Y-035094D02*
G01X0055323Y-035799D01*
G54D43*
G01X0047717Y-042185D02*
G01X0045669Y-044232D01*
G54D44*
G01X0058291Y-028504D02*
G01X0059630Y-027165D01*
G01X0058900Y-038207D02*
G01X0058455Y-038207D01*
G54D43*
G01X0038898Y-055098D02*
G01X0047539Y-055098D01*
G54D44*
G01X0053539Y-027303D02*
G01X0053318Y-027525D01*
G01X0056028Y-031559D02*
G01X0056028Y-035094D01*
G54D43*
G01X0055323Y-036933D02*
G01X0052906Y-039350D01*
G54D44*
G01X0060099Y-045027D02*
G01X0060099Y-041103D01*
G54D45*
G01X0045745Y-028976D02*
G01X0044567Y-027798D01*
G54D44*
G01X0058894Y-046232D02*
G01X0060099Y-045027D01*
G01X0061955Y-041097D02*
G01X0060105Y-041097D01*
G54D45*
G01X0049004Y-028976D02*
G01X0045745Y-028976D01*
G54D43*
G01X0048181Y-045420D02*
G01X0048181Y-046457D01*
G54D44*
G01X0056028Y-028504D02*
G01X0056028Y-031559D01*
G54D43*
G01X0059161Y-031663D02*
G01X0059313Y-031815D01*
G54D44*
G01X0054843Y-027303D02*
G01X0053539Y-027303D01*
G54D43*
G01X0047717Y-039350D02*
G01X0047717Y-042185D01*
G01X0057945Y-031663D02*
G01X0059161Y-031663D01*
G54D44*
G01X0056028Y-035094D02*
G01X0058020Y-035094D01*
G01X0056028Y-028504D02*
G01X0058291Y-028504D01*
G01X0061939Y-049120D02*
G01X0059991Y-049120D01*
G54D43*
G01X0055323Y-035799D02*
G01X0055323Y-036933D01*
G54D44*
G01X0059657Y-036732D02*
G01X0059657Y-037449D01*
G54D43*
G01X0056132Y-031663D02*
G01X0056028Y-031559D01*
G01X0047950Y-045189D02*
G01X0048181Y-045420D01*
G01X0045669Y-044232D02*
G01X0042598Y-044232D01*
G54D44*
G01X0060099Y-041103D02*
G01X0060105Y-041097D01*
G01X0056028Y-027165D02*
G01X0054980Y-027165D01*
G54D43*
G01X0052180Y-027591D02*
G01X0052114Y-027525D01*
G54D44*
G01X0052114Y-027525D02*
G01X0050456Y-027525D01*
G54D43*
G01X0059303Y-032825D02*
G01X0059313Y-032815D01*
G01X0057945Y-032825D02*
G01X0057945Y-033546D01*
G01X0057945Y-033546D02*
G01X0057953Y-033554D01*
G01X0057945Y-032825D02*
G01X0059303Y-032825D01*
G01X0043878Y-050079D02*
G01X0043181Y-049382D01*
G01X0043181Y-049382D02*
G01X0043181Y-046457D01*
G01X0054488Y-048150D02*
G01X0052559Y-050079D01*
G01X0054488Y-045020D02*
G01X0054488Y-048150D01*
G01X0056838Y-037201D02*
G01X0056838Y-042670D01*
G01X0056838Y-042670D02*
G01X0054488Y-045020D01*
G01X0052559Y-050079D02*
G01X0043878Y-050079D01*
G01X0052933Y-050689D02*
G01X0042913Y-050689D01*
G01X0056743Y-045232D02*
G01X0055983Y-045232D01*
G01X0042913Y-050689D02*
G01X0042181Y-049957D01*
G01X0055177Y-048445D02*
G01X0052933Y-050689D01*
G01X0055983Y-045232D02*
G01X0055177Y-046038D01*
G01X0055177Y-046038D02*
G01X0055177Y-048445D01*
G01X0042181Y-049957D02*
G01X0042181Y-046457D01*
G01X0040696Y-054598D02*
G01X0040709Y-054611D01*
G01X0038898Y-054598D02*
G01X0040696Y-054598D01*
G01X0037181Y-052457D02*
G01X0037181Y-053374D01*
G01X0037181Y-053374D02*
G01X0038406Y-054598D01*
G01X0038406Y-054598D02*
G01X0038898Y-054598D01*
G01X0061455Y-037207D02*
G01X0061455Y-036561D01*
G54D44*
G01X0056028Y-025827D02*
G01X0055079Y-025827D01*
G01X0052119Y-025591D02*
G01X0052114Y-025586D01*
G01X0062209Y-045232D02*
G01X0062672Y-045695D01*
G01X0061455Y-037207D02*
G01X0062235Y-037207D01*
G54D43*
G01X0039103Y-053893D02*
G01X0038898Y-054098D01*
G54D44*
G01X0052114Y-025586D02*
G01X0049245Y-025586D01*
G01X0055079Y-025827D02*
G01X0054843Y-025591D01*
G54D43*
G01X0040709Y-053893D02*
G01X0039103Y-053893D01*
G54D44*
G01X0062235Y-037207D02*
G01X0062688Y-037659D01*
G54D45*
G01X0049001Y-025830D02*
G01X0049004Y-025827D01*
G54D44*
G01X0049245Y-025586D02*
G01X0049004Y-025827D01*
G54D43*
G01X0061455Y-036561D02*
G01X0059166Y-034273D01*
G54D44*
G01X0061449Y-045232D02*
G01X0062209Y-045232D01*
G54D45*
G01X0044567Y-025830D02*
G01X0049001Y-025830D01*
G54D44*
G01X0054843Y-025591D02*
G01X0052119Y-025591D01*
G54D43*
G01X0057953Y-034273D02*
G01X0059166Y-034273D01*
G54D44*
G01X0067603Y-031673D02*
G01X0069265Y-031673D01*
G01X0069265Y-031673D02*
G01X0069270Y-031668D01*
G01X0067643Y-032652D02*
G01X0067642Y-032654D01*
G01X0069270Y-032652D02*
G01X0067643Y-032652D01*
G01X0072144Y-033144D02*
G01X0071652Y-032652D01*
G01X0072736Y-033150D02*
G01X0072144Y-033144D01*
G01X0072144Y-031176D02*
G01X0071652Y-031668D01*
G01X0072733Y-031176D02*
G01X0072144Y-031176D01*
G54D43*
G01X0052173Y-031099D02*
G01X0052173Y-035799D01*
G01X0053783Y-030378D02*
G01X0052901Y-030378D01*
G54D44*
G01X0038598Y-042051D02*
G01X0043346Y-037303D01*
G01X0048335Y-035799D02*
G01X0048327Y-035807D01*
G01X0052173Y-035799D02*
G01X0048335Y-035799D01*
G54D43*
G01X0052901Y-030378D02*
G01X0052898Y-030375D01*
G54D44*
G01X0046831Y-037303D02*
G01X0048327Y-035807D01*
G01X0043346Y-037303D02*
G01X0046831Y-037303D01*
G01X0038598Y-044232D02*
G01X0038598Y-042051D01*
G54D43*
G01X0052898Y-030375D02*
G01X0052173Y-031099D01*
G01X0053783Y-029630D02*
G01X0053783Y-028921D01*
G01X0053189Y-028169D02*
G01X0052899Y-028420D01*
G01X0052899Y-028878D02*
G01X0052899Y-029656D01*
G01X0054122Y-027835D02*
G01X0053783Y-028173D01*
G01X0056028Y-027835D02*
G01X0054122Y-027835D01*
G01X0053783Y-028173D02*
G01X0053189Y-028169D01*
G01X0052899Y-028420D02*
G01X0052899Y-028878D01*
G01X0052899Y-029656D02*
G01X0052898Y-029656D01*
G54D44*
G01X0044388Y-033602D02*
G01X0046713Y-033602D01*
G01X0056028Y-026496D02*
G01X0054390Y-026496D01*
G01X0046713Y-033602D02*
G01X0048327Y-031988D01*
G01X0063903Y-041934D02*
G01X0062693Y-040723D01*
G01X0064873Y-041934D02*
G01X0063903Y-041934D01*
G01X0062688Y-040718D02*
G01X0062693Y-040723D01*
G01X0062688Y-038644D02*
G01X0062688Y-040718D01*
G01X0063897Y-049967D02*
G01X0062677Y-048746D01*
G01X0064877Y-049967D02*
G01X0063897Y-049967D01*
G01X0062677Y-046684D02*
G01X0062672Y-046679D01*
G01X0062677Y-048746D02*
G01X0062677Y-046684D01*
G54D43*
G01X0061955Y-040349D02*
G01X0061270Y-040349D01*
G01X0061270Y-040349D02*
G01X0061054Y-040133D01*
G01X0061231Y-048372D02*
G01X0061030Y-048170D01*
G01X0061939Y-048372D02*
G01X0061231Y-048372D01*
G54D44*
G01X0062849Y-032815D02*
G01X0063991Y-031673D01*
G01X0062313Y-032815D02*
G01X0062849Y-032815D01*
G01X0065143Y-031673D02*
G01X0066452Y-031673D01*
G54D43*
G01X0058455Y-037207D02*
G01X0057562Y-037207D01*
G01X0057562Y-037207D02*
G01X0057556Y-037201D01*
G01X0061455Y-039013D02*
G01X0061054Y-039414D01*
G01X0061455Y-038207D02*
G01X0061455Y-039013D01*
G01X0046173Y-044649D02*
G01X0046691Y-044649D01*
G01X0045501Y-044649D02*
G01X0044724Y-045425D01*
G01X0044724Y-045425D02*
G01X0041039Y-045425D01*
G01X0040602Y-044953D02*
G01X0040598Y-044937D01*
G01X0041039Y-045425D02*
G01X0040602Y-044953D01*
G01X0040598Y-044937D02*
G01X0040598Y-044232D01*
G01X0046691Y-044649D02*
G01X0047231Y-045189D01*
G01X0046173Y-044649D02*
G01X0045501Y-044649D01*
G01X0058449Y-045232D02*
G01X0057462Y-045232D01*
G01X0061449Y-046232D02*
G01X0061449Y-047033D01*
G01X0061449Y-047033D02*
G01X0061030Y-047452D01*
G01X0040406Y-043425D02*
G01X0045472Y-043425D01*
G01X0045472Y-043425D02*
G01X0046535Y-042362D01*
G01X0039598Y-044232D02*
G01X0040406Y-043425D01*
G01X0046535Y-042362D02*
G01X0046535Y-042185D01*
G01X0046535Y-039350D02*
G01X0046535Y-042185D01*
G01X0046181Y-046457D02*
G01X0046181Y-045375D01*
G54D46*
G01X0046181Y-045375D02*
G01X0046173Y-045367D01*
M02*
