M48
; DRILL file {KiCad (6.0.8)} date Sun Dec 11 00:22:05 2022
; FORMAT={-:-/ absolute / metric / decimal}
; #@! TF.CreationDate,2022-12-11T00:22:05+04:00
; #@! TF.GenerationSoftware,Kicad,Pcbnew,(6.0.8)
; #@! TF.FileFunction,MixedPlating,1,2
FMAT,2
METRIC
; #@! TA.AperFunction,Plated,PTH,ViaDrill
T1C0.700
; #@! TA.AperFunction,Plated,PTH,ComponentDrill
T2C0.750
; #@! TA.AperFunction,Plated,PTH,ComponentDrill
T3C0.800
; #@! TA.AperFunction,Plated,PTH,ComponentDrill
T4C0.900
; #@! TA.AperFunction,Plated,PTH,ComponentDrill
T5C1.000
; #@! TA.AperFunction,Plated,PTH,ComponentDrill
T6C1.300
; #@! TA.AperFunction,Plated,PTH,ViaDrill
T7C1.600
; #@! TA.AperFunction,Plated,PTH,ComponentDrill
T8C1.600
; #@! TA.AperFunction,Plated,PTH,ComponentDrill
T9C3.160
; #@! TA.AperFunction,Plated,PTH,ComponentDrill
T10C3.640
; #@! TA.AperFunction,NonPlated,NPTH,ComponentDrill
T11C2.700
%
G90
G05
T1
X171.81Y-82.94
T2
X98.8Y-137.41
X98.8Y-138.68
X98.8Y-139.95
T3
X148.46Y-114.89
X148.46Y-117.43
X148.475Y-94.505
X148.475Y-97.045
X150.655Y-80.81
X150.655Y-83.35
X156.08Y-114.89
X156.08Y-117.43
X156.095Y-94.505
X156.095Y-97.045
X158.275Y-80.81
X158.275Y-83.35
T4
X95.5Y-112.35
X98.04Y-90.48
X98.04Y-112.35
X100.58Y-90.48
X100.58Y-112.35
X103.12Y-90.48
X103.12Y-112.35
X105.66Y-90.48
X105.66Y-112.35
X108.2Y-90.48
X108.2Y-112.35
X110.74Y-90.48
T5
X94.44Y-118.0
X94.44Y-133.24
X96.98Y-118.0
X96.98Y-133.24
X99.52Y-118.0
X99.52Y-133.24
X102.06Y-118.0
X102.06Y-133.24
X104.6Y-118.0
X104.6Y-133.24
X107.14Y-118.0
X107.14Y-133.24
X109.68Y-118.0
X109.68Y-133.24
X112.22Y-118.0
X112.22Y-133.24
X113.2Y-65.607
X113.2Y-70.607
X114.76Y-118.0
X114.76Y-133.24
X117.3Y-118.0
X117.3Y-133.24
X119.84Y-118.0
X119.84Y-133.24
X122.38Y-118.0
X122.38Y-133.24
X124.92Y-118.0
X124.92Y-133.24
X127.46Y-118.0
X127.46Y-133.24
X130.0Y-118.0
X130.0Y-133.24
X164.777Y-94.512
X164.777Y-106.512
X164.787Y-114.915
X164.787Y-126.915
T6
X162.827Y-100.462
X162.837Y-120.865
X176.977Y-106.512
X176.987Y-126.915
X177.027Y-94.462
X177.037Y-114.865
X188.615Y-115.865
X188.615Y-120.865
X188.615Y-125.865
X188.63Y-95.462
X188.63Y-100.462
X188.63Y-105.462
X190.62Y-79.19
X190.62Y-84.19
T7
X94.44Y-133.24
X98.04Y-112.35
X100.58Y-112.35
X103.12Y-112.35
X107.14Y-118.0
X108.2Y-112.35
X109.68Y-118.0
X113.2Y-65.607
X113.2Y-70.607
X117.3Y-118.0
X122.38Y-118.0
X127.46Y-133.24
X138.15Y-67.3
X148.46Y-114.89
X148.46Y-117.43
X148.475Y-94.505
X148.475Y-97.045
X150.655Y-80.81
X150.655Y-83.35
X156.08Y-114.89
X156.08Y-117.43
X156.095Y-97.045
X156.102Y-94.512
X158.275Y-80.81
X158.275Y-83.35
X184.742Y-79.188
X184.75Y-84.2
T8
X97.505Y-85.35
X112.745Y-85.35
T9
X96.5Y-73.915
X99.5Y-78.615
T10
X102.5Y-73.915
T11
X168.15Y-66.8
X168.15Y-138.1
T0
M30
