G04 #@! TF.GenerationSoftware,KiCad,Pcbnew,(6.0.8)*
G04 #@! TF.CreationDate,2022-12-11T00:22:14+04:00*
G04 #@! TF.ProjectId,SIM800_NANO,53494d38-3030-45f4-9e41-4e4f2e6b6963,rev?*
G04 #@! TF.SameCoordinates,Original*
G04 #@! TF.FileFunction,Soldermask,Bot*
G04 #@! TF.FilePolarity,Negative*
%FSLAX46Y46*%
G04 Gerber Fmt 4.6, Leading zero omitted, Abs format (unit mm)*
G04 Created by KiCad (PCBNEW (6.0.8)) date 2022-12-11 00:22:14*
%MOMM*%
%LPD*%
G01*
G04 APERTURE LIST*
%ADD10R,1.950000X1.950000*%
%ADD11C,1.950000*%
%ADD12R,1.600000X1.600000*%
%ADD13O,1.600000X1.600000*%
%ADD14C,1.900000*%
%ADD15C,3.000000*%
%ADD16C,2.500000*%
%ADD17R,1.500000X1.050000*%
%ADD18O,1.500000X1.050000*%
%ADD19R,2.000000X2.000000*%
%ADD20C,2.000000*%
%ADD21C,2.700000*%
%ADD22R,3.200000X3.200000*%
%ADD23O,3.200000X3.200000*%
%ADD24C,5.460000*%
%ADD25C,4.740000*%
G04 APERTURE END LIST*
D10*
X188630000Y-95462000D03*
D11*
X188630000Y-100462000D03*
X188630000Y-105462000D03*
D12*
X158275000Y-83350000D03*
D13*
X158275000Y-80810000D03*
X150655000Y-80810000D03*
X150655000Y-83350000D03*
D14*
X95500000Y-112350000D03*
X98040000Y-112350000D03*
X100580000Y-112350000D03*
X103120000Y-112350000D03*
X105660000Y-112350000D03*
X108200000Y-112350000D03*
X110740000Y-90480000D03*
X108200000Y-90480000D03*
X105660000Y-90480000D03*
X103120000Y-90480000D03*
X100580000Y-90480000D03*
X98040000Y-90480000D03*
D12*
X148460000Y-114890000D03*
D13*
X148460000Y-117430000D03*
X156080000Y-117430000D03*
X156080000Y-114890000D03*
D15*
X162827000Y-100462000D03*
D16*
X164777000Y-106512000D03*
D15*
X176977000Y-106512000D03*
X177027000Y-94462000D03*
D16*
X164777000Y-94512000D03*
D17*
X98800000Y-139950000D03*
D18*
X98800000Y-138680000D03*
X98800000Y-137410000D03*
D11*
X190620000Y-79190000D03*
X190620000Y-84190000D03*
D15*
X162837000Y-120865000D03*
D16*
X164787000Y-126915000D03*
D15*
X176987000Y-126915000D03*
X177037000Y-114865000D03*
D16*
X164787000Y-114915000D03*
D19*
X113200000Y-65607323D03*
D20*
X113200000Y-70607323D03*
D12*
X148475000Y-94505000D03*
D13*
X148475000Y-97045000D03*
X156095000Y-97045000D03*
X156095000Y-94505000D03*
D10*
X188615000Y-115865000D03*
D11*
X188615000Y-120865000D03*
X188615000Y-125865000D03*
D21*
X168150000Y-66800000D03*
D22*
X112745000Y-85350000D03*
D23*
X97505000Y-85350000D03*
D24*
X102500000Y-73915000D03*
D25*
X96500000Y-73915000D03*
X99500000Y-78615000D03*
D21*
X168150000Y-138100000D03*
D12*
X130000000Y-118000000D03*
D13*
X127460000Y-118000000D03*
X124920000Y-118000000D03*
X122380000Y-118000000D03*
X119840000Y-118000000D03*
X117300000Y-118000000D03*
X114760000Y-118000000D03*
X112220000Y-118000000D03*
X109680000Y-118000000D03*
X107140000Y-118000000D03*
X104600000Y-118000000D03*
X102060000Y-118000000D03*
X99520000Y-118000000D03*
X96980000Y-118000000D03*
X94440000Y-118000000D03*
X94440000Y-133240000D03*
X96980000Y-133240000D03*
X99520000Y-133240000D03*
X102060000Y-133240000D03*
X104600000Y-133240000D03*
X107140000Y-133240000D03*
X109680000Y-133240000D03*
X112220000Y-133240000D03*
X114760000Y-133240000D03*
X117300000Y-133240000D03*
X119840000Y-133240000D03*
X122380000Y-133240000D03*
X124920000Y-133240000D03*
X127460000Y-133240000D03*
X130000000Y-133240000D03*
M02*
