G04 #@! TF.GenerationSoftware,KiCad,Pcbnew,(6.0.8)*
G04 #@! TF.CreationDate,2022-12-11T00:22:14+04:00*
G04 #@! TF.ProjectId,SIM800_NANO,53494d38-3030-45f4-9e41-4e4f2e6b6963,rev?*
G04 #@! TF.SameCoordinates,Original*
G04 #@! TF.FileFunction,Legend,Top*
G04 #@! TF.FilePolarity,Positive*
%FSLAX46Y46*%
G04 Gerber Fmt 4.6, Leading zero omitted, Abs format (unit mm)*
G04 Created by KiCad (PCBNEW (6.0.8)) date 2022-12-11 00:22:14*
%MOMM*%
%LPD*%
G01*
G04 APERTURE LIST*
%ADD10C,0.150000*%
%ADD11C,0.254000*%
%ADD12C,0.120000*%
%ADD13C,0.100000*%
%ADD14C,0.200000*%
G04 APERTURE END LIST*
D10*
X158881904Y-114602380D02*
X158881904Y-113602380D01*
X159120000Y-113602380D01*
X159262857Y-113650000D01*
X159358095Y-113745238D01*
X159405714Y-113840476D01*
X159453333Y-114030952D01*
X159453333Y-114173809D01*
X159405714Y-114364285D01*
X159358095Y-114459523D01*
X159262857Y-114554761D01*
X159120000Y-114602380D01*
X158881904Y-114602380D01*
X159786666Y-113602380D02*
X160405714Y-113602380D01*
X160072380Y-113983333D01*
X160215238Y-113983333D01*
X160310476Y-114030952D01*
X160358095Y-114078571D01*
X160405714Y-114173809D01*
X160405714Y-114411904D01*
X160358095Y-114507142D01*
X160310476Y-114554761D01*
X160215238Y-114602380D01*
X159929523Y-114602380D01*
X159834285Y-114554761D01*
X159786666Y-114507142D01*
X136353333Y-85087142D02*
X136305714Y-85134761D01*
X136162857Y-85182380D01*
X136067619Y-85182380D01*
X135924761Y-85134761D01*
X135829523Y-85039523D01*
X135781904Y-84944285D01*
X135734285Y-84753809D01*
X135734285Y-84610952D01*
X135781904Y-84420476D01*
X135829523Y-84325238D01*
X135924761Y-84230000D01*
X136067619Y-84182380D01*
X136162857Y-84182380D01*
X136305714Y-84230000D01*
X136353333Y-84277619D01*
X137210476Y-84515714D02*
X137210476Y-85182380D01*
X136972380Y-84134761D02*
X136734285Y-84849047D01*
X137353333Y-84849047D01*
X135277142Y-67616666D02*
X135324761Y-67664285D01*
X135372380Y-67807142D01*
X135372380Y-67902380D01*
X135324761Y-68045238D01*
X135229523Y-68140476D01*
X135134285Y-68188095D01*
X134943809Y-68235714D01*
X134800952Y-68235714D01*
X134610476Y-68188095D01*
X134515238Y-68140476D01*
X134420000Y-68045238D01*
X134372380Y-67902380D01*
X134372380Y-67807142D01*
X134420000Y-67664285D01*
X134467619Y-67616666D01*
X134467619Y-67235714D02*
X134420000Y-67188095D01*
X134372380Y-67092857D01*
X134372380Y-66854761D01*
X134420000Y-66759523D01*
X134467619Y-66711904D01*
X134562857Y-66664285D01*
X134658095Y-66664285D01*
X134800952Y-66711904D01*
X135372380Y-67283333D01*
X135372380Y-66664285D01*
X153712380Y-122112857D02*
X153236190Y-122446190D01*
X153712380Y-122684285D02*
X152712380Y-122684285D01*
X152712380Y-122303333D01*
X152760000Y-122208095D01*
X152807619Y-122160476D01*
X152902857Y-122112857D01*
X153045714Y-122112857D01*
X153140952Y-122160476D01*
X153188571Y-122208095D01*
X153236190Y-122303333D01*
X153236190Y-122684285D01*
X153712380Y-121160476D02*
X153712380Y-121731904D01*
X153712380Y-121446190D02*
X152712380Y-121446190D01*
X152855238Y-121541428D01*
X152950476Y-121636666D01*
X152998095Y-121731904D01*
X152807619Y-120779523D02*
X152760000Y-120731904D01*
X152712380Y-120636666D01*
X152712380Y-120398571D01*
X152760000Y-120303333D01*
X152807619Y-120255714D01*
X152902857Y-120208095D01*
X152998095Y-120208095D01*
X153140952Y-120255714D01*
X153712380Y-120827142D01*
X153712380Y-120208095D01*
X138777142Y-72686666D02*
X138824761Y-72734285D01*
X138872380Y-72877142D01*
X138872380Y-72972380D01*
X138824761Y-73115238D01*
X138729523Y-73210476D01*
X138634285Y-73258095D01*
X138443809Y-73305714D01*
X138300952Y-73305714D01*
X138110476Y-73258095D01*
X138015238Y-73210476D01*
X137920000Y-73115238D01*
X137872380Y-72972380D01*
X137872380Y-72877142D01*
X137920000Y-72734285D01*
X137967619Y-72686666D01*
X137872380Y-72353333D02*
X137872380Y-71686666D01*
X138872380Y-72115238D01*
D11*
X183066666Y-89624523D02*
X183066666Y-90531666D01*
X183006190Y-90713095D01*
X182885238Y-90834047D01*
X182703809Y-90894523D01*
X182582857Y-90894523D01*
X183550476Y-89624523D02*
X184336666Y-89624523D01*
X183913333Y-90108333D01*
X184094761Y-90108333D01*
X184215714Y-90168809D01*
X184276190Y-90229285D01*
X184336666Y-90350238D01*
X184336666Y-90652619D01*
X184276190Y-90773571D01*
X184215714Y-90834047D01*
X184094761Y-90894523D01*
X183731904Y-90894523D01*
X183610952Y-90834047D01*
X183550476Y-90773571D01*
D10*
X130633333Y-73842380D02*
X130300000Y-73366190D01*
X130061904Y-73842380D02*
X130061904Y-72842380D01*
X130442857Y-72842380D01*
X130538095Y-72890000D01*
X130585714Y-72937619D01*
X130633333Y-73032857D01*
X130633333Y-73175714D01*
X130585714Y-73270952D01*
X130538095Y-73318571D01*
X130442857Y-73366190D01*
X130061904Y-73366190D01*
X131538095Y-72842380D02*
X131061904Y-72842380D01*
X131014285Y-73318571D01*
X131061904Y-73270952D01*
X131157142Y-73223333D01*
X131395238Y-73223333D01*
X131490476Y-73270952D01*
X131538095Y-73318571D01*
X131585714Y-73413809D01*
X131585714Y-73651904D01*
X131538095Y-73747142D01*
X131490476Y-73794761D01*
X131395238Y-73842380D01*
X131157142Y-73842380D01*
X131061904Y-73794761D01*
X131014285Y-73747142D01*
X153703095Y-85132380D02*
X153703095Y-85941904D01*
X153750714Y-86037142D01*
X153798333Y-86084761D01*
X153893571Y-86132380D01*
X154084047Y-86132380D01*
X154179285Y-86084761D01*
X154226904Y-86037142D01*
X154274523Y-85941904D01*
X154274523Y-85132380D01*
X154703095Y-85227619D02*
X154750714Y-85180000D01*
X154845952Y-85132380D01*
X155084047Y-85132380D01*
X155179285Y-85180000D01*
X155226904Y-85227619D01*
X155274523Y-85322857D01*
X155274523Y-85418095D01*
X155226904Y-85560952D01*
X154655476Y-86132380D01*
X155274523Y-86132380D01*
X147323095Y-61802380D02*
X147323095Y-62611904D01*
X147370714Y-62707142D01*
X147418333Y-62754761D01*
X147513571Y-62802380D01*
X147704047Y-62802380D01*
X147799285Y-62754761D01*
X147846904Y-62707142D01*
X147894523Y-62611904D01*
X147894523Y-61802380D01*
X148894523Y-62802380D02*
X148323095Y-62802380D01*
X148608809Y-62802380D02*
X148608809Y-61802380D01*
X148513571Y-61945238D01*
X148418333Y-62040476D01*
X148323095Y-62088095D01*
X88452380Y-113111904D02*
X89261904Y-113111904D01*
X89357142Y-113064285D01*
X89404761Y-113016666D01*
X89452380Y-112921428D01*
X89452380Y-112730952D01*
X89404761Y-112635714D01*
X89357142Y-112588095D01*
X89261904Y-112540476D01*
X88452380Y-112540476D01*
X88452380Y-111635714D02*
X88452380Y-111826190D01*
X88500000Y-111921428D01*
X88547619Y-111969047D01*
X88690476Y-112064285D01*
X88880952Y-112111904D01*
X89261904Y-112111904D01*
X89357142Y-112064285D01*
X89404761Y-112016666D01*
X89452380Y-111921428D01*
X89452380Y-111730952D01*
X89404761Y-111635714D01*
X89357142Y-111588095D01*
X89261904Y-111540476D01*
X89023809Y-111540476D01*
X88928571Y-111588095D01*
X88880952Y-111635714D01*
X88833333Y-111730952D01*
X88833333Y-111921428D01*
X88880952Y-112016666D01*
X88928571Y-112064285D01*
X89023809Y-112111904D01*
X149638095Y-111852380D02*
X149638095Y-112661904D01*
X149685714Y-112757142D01*
X149733333Y-112804761D01*
X149828571Y-112852380D01*
X150019047Y-112852380D01*
X150114285Y-112804761D01*
X150161904Y-112757142D01*
X150209523Y-112661904D01*
X150209523Y-111852380D01*
X151161904Y-111852380D02*
X150685714Y-111852380D01*
X150638095Y-112328571D01*
X150685714Y-112280952D01*
X150780952Y-112233333D01*
X151019047Y-112233333D01*
X151114285Y-112280952D01*
X151161904Y-112328571D01*
X151209523Y-112423809D01*
X151209523Y-112661904D01*
X151161904Y-112757142D01*
X151114285Y-112804761D01*
X151019047Y-112852380D01*
X150780952Y-112852380D01*
X150685714Y-112804761D01*
X150638095Y-112757142D01*
X124313333Y-62877142D02*
X124265714Y-62924761D01*
X124122857Y-62972380D01*
X124027619Y-62972380D01*
X123884761Y-62924761D01*
X123789523Y-62829523D01*
X123741904Y-62734285D01*
X123694285Y-62543809D01*
X123694285Y-62400952D01*
X123741904Y-62210476D01*
X123789523Y-62115238D01*
X123884761Y-62020000D01*
X124027619Y-61972380D01*
X124122857Y-61972380D01*
X124265714Y-62020000D01*
X124313333Y-62067619D01*
X124646666Y-61972380D02*
X125265714Y-61972380D01*
X124932380Y-62353333D01*
X125075238Y-62353333D01*
X125170476Y-62400952D01*
X125218095Y-62448571D01*
X125265714Y-62543809D01*
X125265714Y-62781904D01*
X125218095Y-62877142D01*
X125170476Y-62924761D01*
X125075238Y-62972380D01*
X124789523Y-62972380D01*
X124694285Y-62924761D01*
X124646666Y-62877142D01*
X170188904Y-110114380D02*
X170188904Y-109114380D01*
X170760333Y-110114380D02*
X170331761Y-109542952D01*
X170760333Y-109114380D02*
X170188904Y-109685809D01*
X171712714Y-110114380D02*
X171141285Y-110114380D01*
X171427000Y-110114380D02*
X171427000Y-109114380D01*
X171331761Y-109257238D01*
X171236523Y-109352476D01*
X171141285Y-109400095D01*
X94692380Y-139441904D02*
X95501904Y-139441904D01*
X95597142Y-139394285D01*
X95644761Y-139346666D01*
X95692380Y-139251428D01*
X95692380Y-139060952D01*
X95644761Y-138965714D01*
X95597142Y-138918095D01*
X95501904Y-138870476D01*
X94692380Y-138870476D01*
X94692380Y-138489523D02*
X94692380Y-137870476D01*
X95073333Y-138203809D01*
X95073333Y-138060952D01*
X95120952Y-137965714D01*
X95168571Y-137918095D01*
X95263809Y-137870476D01*
X95501904Y-137870476D01*
X95597142Y-137918095D01*
X95644761Y-137965714D01*
X95692380Y-138060952D01*
X95692380Y-138346666D01*
X95644761Y-138441904D01*
X95597142Y-138489523D01*
X105502380Y-137966666D02*
X105026190Y-138300000D01*
X105502380Y-138538095D02*
X104502380Y-138538095D01*
X104502380Y-138157142D01*
X104550000Y-138061904D01*
X104597619Y-138014285D01*
X104692857Y-137966666D01*
X104835714Y-137966666D01*
X104930952Y-138014285D01*
X104978571Y-138061904D01*
X105026190Y-138157142D01*
X105026190Y-138538095D01*
X104502380Y-137109523D02*
X104502380Y-137300000D01*
X104550000Y-137395238D01*
X104597619Y-137442857D01*
X104740476Y-137538095D01*
X104930952Y-137585714D01*
X105311904Y-137585714D01*
X105407142Y-137538095D01*
X105454761Y-137490476D01*
X105502380Y-137395238D01*
X105502380Y-137204761D01*
X105454761Y-137109523D01*
X105407142Y-137061904D01*
X105311904Y-137014285D01*
X105073809Y-137014285D01*
X104978571Y-137061904D01*
X104930952Y-137109523D01*
X104883333Y-137204761D01*
X104883333Y-137395238D01*
X104930952Y-137490476D01*
X104978571Y-137538095D01*
X105073809Y-137585714D01*
D11*
X190224523Y-82113333D02*
X191131666Y-82113333D01*
X191313095Y-82173809D01*
X191434047Y-82294761D01*
X191494523Y-82476190D01*
X191494523Y-82597142D01*
X190345476Y-81569047D02*
X190285000Y-81508571D01*
X190224523Y-81387619D01*
X190224523Y-81085238D01*
X190285000Y-80964285D01*
X190345476Y-80903809D01*
X190466428Y-80843333D01*
X190587380Y-80843333D01*
X190768809Y-80903809D01*
X191494523Y-81629523D01*
X191494523Y-80843333D01*
D10*
X170198904Y-130517380D02*
X170198904Y-129517380D01*
X170770333Y-130517380D02*
X170341761Y-129945952D01*
X170770333Y-129517380D02*
X170198904Y-130088809D01*
X171151285Y-129612619D02*
X171198904Y-129565000D01*
X171294142Y-129517380D01*
X171532238Y-129517380D01*
X171627476Y-129565000D01*
X171675095Y-129612619D01*
X171722714Y-129707857D01*
X171722714Y-129803095D01*
X171675095Y-129945952D01*
X171103666Y-130517380D01*
X171722714Y-130517380D01*
X113133333Y-62227142D02*
X113085714Y-62274761D01*
X112942857Y-62322380D01*
X112847619Y-62322380D01*
X112704761Y-62274761D01*
X112609523Y-62179523D01*
X112561904Y-62084285D01*
X112514285Y-61893809D01*
X112514285Y-61750952D01*
X112561904Y-61560476D01*
X112609523Y-61465238D01*
X112704761Y-61370000D01*
X112847619Y-61322380D01*
X112942857Y-61322380D01*
X113085714Y-61370000D01*
X113133333Y-61417619D01*
X114085714Y-62322380D02*
X113514285Y-62322380D01*
X113800000Y-62322380D02*
X113800000Y-61322380D01*
X113704761Y-61465238D01*
X113609523Y-61560476D01*
X113514285Y-61608095D01*
X152768095Y-91742380D02*
X152768095Y-92551904D01*
X152815714Y-92647142D01*
X152863333Y-92694761D01*
X152958571Y-92742380D01*
X153149047Y-92742380D01*
X153244285Y-92694761D01*
X153291904Y-92647142D01*
X153339523Y-92551904D01*
X153339523Y-91742380D01*
X154244285Y-92075714D02*
X154244285Y-92742380D01*
X154006190Y-91694761D02*
X153768095Y-92409047D01*
X154387142Y-92409047D01*
X157444761Y-121907619D02*
X157349523Y-121860000D01*
X157254285Y-121764761D01*
X157111428Y-121621904D01*
X157016190Y-121574285D01*
X156920952Y-121574285D01*
X156968571Y-121812380D02*
X156873333Y-121764761D01*
X156778095Y-121669523D01*
X156730476Y-121479047D01*
X156730476Y-121145714D01*
X156778095Y-120955238D01*
X156873333Y-120860000D01*
X156968571Y-120812380D01*
X157159047Y-120812380D01*
X157254285Y-120860000D01*
X157349523Y-120955238D01*
X157397142Y-121145714D01*
X157397142Y-121479047D01*
X157349523Y-121669523D01*
X157254285Y-121764761D01*
X157159047Y-121812380D01*
X156968571Y-121812380D01*
X157778095Y-120907619D02*
X157825714Y-120860000D01*
X157920952Y-120812380D01*
X158159047Y-120812380D01*
X158254285Y-120860000D01*
X158301904Y-120907619D01*
X158349523Y-121002857D01*
X158349523Y-121098095D01*
X158301904Y-121240952D01*
X157730476Y-121812380D01*
X158349523Y-121812380D01*
X145687142Y-82066666D02*
X145734761Y-82114285D01*
X145782380Y-82257142D01*
X145782380Y-82352380D01*
X145734761Y-82495238D01*
X145639523Y-82590476D01*
X145544285Y-82638095D01*
X145353809Y-82685714D01*
X145210952Y-82685714D01*
X145020476Y-82638095D01*
X144925238Y-82590476D01*
X144830000Y-82495238D01*
X144782380Y-82352380D01*
X144782380Y-82257142D01*
X144830000Y-82114285D01*
X144877619Y-82066666D01*
X144782380Y-81209523D02*
X144782380Y-81400000D01*
X144830000Y-81495238D01*
X144877619Y-81542857D01*
X145020476Y-81638095D01*
X145210952Y-81685714D01*
X145591904Y-81685714D01*
X145687142Y-81638095D01*
X145734761Y-81590476D01*
X145782380Y-81495238D01*
X145782380Y-81304761D01*
X145734761Y-81209523D01*
X145687142Y-81161904D01*
X145591904Y-81114285D01*
X145353809Y-81114285D01*
X145258571Y-81161904D01*
X145210952Y-81209523D01*
X145163333Y-81304761D01*
X145163333Y-81495238D01*
X145210952Y-81590476D01*
X145258571Y-81638095D01*
X145353809Y-81685714D01*
X145743333Y-97242380D02*
X145410000Y-96766190D01*
X145171904Y-97242380D02*
X145171904Y-96242380D01*
X145552857Y-96242380D01*
X145648095Y-96290000D01*
X145695714Y-96337619D01*
X145743333Y-96432857D01*
X145743333Y-96575714D01*
X145695714Y-96670952D01*
X145648095Y-96718571D01*
X145552857Y-96766190D01*
X145171904Y-96766190D01*
X146076666Y-96242380D02*
X146743333Y-96242380D01*
X146314761Y-97242380D01*
X144397142Y-116992380D02*
X144063809Y-116516190D01*
X143825714Y-116992380D02*
X143825714Y-115992380D01*
X144206666Y-115992380D01*
X144301904Y-116040000D01*
X144349523Y-116087619D01*
X144397142Y-116182857D01*
X144397142Y-116325714D01*
X144349523Y-116420952D01*
X144301904Y-116468571D01*
X144206666Y-116516190D01*
X143825714Y-116516190D01*
X145349523Y-116992380D02*
X144778095Y-116992380D01*
X145063809Y-116992380D02*
X145063809Y-115992380D01*
X144968571Y-116135238D01*
X144873333Y-116230476D01*
X144778095Y-116278095D01*
X146301904Y-116992380D02*
X145730476Y-116992380D01*
X146016190Y-116992380D02*
X146016190Y-115992380D01*
X145920952Y-116135238D01*
X145825714Y-116230476D01*
X145730476Y-116278095D01*
X153879380Y-101191166D02*
X153403190Y-101524500D01*
X153879380Y-101762595D02*
X152879380Y-101762595D01*
X152879380Y-101381642D01*
X152927000Y-101286404D01*
X152974619Y-101238785D01*
X153069857Y-101191166D01*
X153212714Y-101191166D01*
X153307952Y-101238785D01*
X153355571Y-101286404D01*
X153403190Y-101381642D01*
X153403190Y-101762595D01*
X153307952Y-100619738D02*
X153260333Y-100714976D01*
X153212714Y-100762595D01*
X153117476Y-100810214D01*
X153069857Y-100810214D01*
X152974619Y-100762595D01*
X152927000Y-100714976D01*
X152879380Y-100619738D01*
X152879380Y-100429261D01*
X152927000Y-100334023D01*
X152974619Y-100286404D01*
X153069857Y-100238785D01*
X153117476Y-100238785D01*
X153212714Y-100286404D01*
X153260333Y-100334023D01*
X153307952Y-100429261D01*
X153307952Y-100619738D01*
X153355571Y-100714976D01*
X153403190Y-100762595D01*
X153498428Y-100810214D01*
X153688904Y-100810214D01*
X153784142Y-100762595D01*
X153831761Y-100714976D01*
X153879380Y-100619738D01*
X153879380Y-100429261D01*
X153831761Y-100334023D01*
X153784142Y-100286404D01*
X153688904Y-100238785D01*
X153498428Y-100238785D01*
X153403190Y-100286404D01*
X153355571Y-100334023D01*
X153307952Y-100429261D01*
X133122380Y-76416666D02*
X132646190Y-76750000D01*
X133122380Y-76988095D02*
X132122380Y-76988095D01*
X132122380Y-76607142D01*
X132170000Y-76511904D01*
X132217619Y-76464285D01*
X132312857Y-76416666D01*
X132455714Y-76416666D01*
X132550952Y-76464285D01*
X132598571Y-76511904D01*
X132646190Y-76607142D01*
X132646190Y-76988095D01*
X133122380Y-75464285D02*
X133122380Y-76035714D01*
X133122380Y-75750000D02*
X132122380Y-75750000D01*
X132265238Y-75845238D01*
X132360476Y-75940476D01*
X132408095Y-76035714D01*
D11*
X182986666Y-110004523D02*
X182986666Y-110911666D01*
X182926190Y-111093095D01*
X182805238Y-111214047D01*
X182623809Y-111274523D01*
X182502857Y-111274523D01*
X184135714Y-110427857D02*
X184135714Y-111274523D01*
X183833333Y-109944047D02*
X183530952Y-110851190D01*
X184317142Y-110851190D01*
D10*
X130452380Y-86266666D02*
X130452380Y-86742857D01*
X129452380Y-86742857D01*
X130452380Y-85409523D02*
X130452380Y-85980952D01*
X130452380Y-85695238D02*
X129452380Y-85695238D01*
X129595238Y-85790476D01*
X129690476Y-85885714D01*
X129738095Y-85980952D01*
D11*
X177610952Y-77759285D02*
X177792380Y-77819761D01*
X177852857Y-77880238D01*
X177913333Y-78001190D01*
X177913333Y-78182619D01*
X177852857Y-78303571D01*
X177792380Y-78364047D01*
X177671428Y-78424523D01*
X177187619Y-78424523D01*
X177187619Y-77154523D01*
X177610952Y-77154523D01*
X177731904Y-77215000D01*
X177792380Y-77275476D01*
X177852857Y-77396428D01*
X177852857Y-77517380D01*
X177792380Y-77638333D01*
X177731904Y-77698809D01*
X177610952Y-77759285D01*
X177187619Y-77759285D01*
X179183333Y-78424523D02*
X178760000Y-77819761D01*
X178457619Y-78424523D02*
X178457619Y-77154523D01*
X178941428Y-77154523D01*
X179062380Y-77215000D01*
X179122857Y-77275476D01*
X179183333Y-77396428D01*
X179183333Y-77577857D01*
X179122857Y-77698809D01*
X179062380Y-77759285D01*
X178941428Y-77819761D01*
X178457619Y-77819761D01*
X180392857Y-78424523D02*
X179667142Y-78424523D01*
X180030000Y-78424523D02*
X180030000Y-77154523D01*
X179909047Y-77335952D01*
X179788095Y-77456904D01*
X179667142Y-77517380D01*
D10*
X138757142Y-76366666D02*
X138804761Y-76414285D01*
X138852380Y-76557142D01*
X138852380Y-76652380D01*
X138804761Y-76795238D01*
X138709523Y-76890476D01*
X138614285Y-76938095D01*
X138423809Y-76985714D01*
X138280952Y-76985714D01*
X138090476Y-76938095D01*
X137995238Y-76890476D01*
X137900000Y-76795238D01*
X137852380Y-76652380D01*
X137852380Y-76557142D01*
X137900000Y-76414285D01*
X137947619Y-76366666D01*
X137852380Y-75461904D02*
X137852380Y-75938095D01*
X138328571Y-75985714D01*
X138280952Y-75938095D01*
X138233333Y-75842857D01*
X138233333Y-75604761D01*
X138280952Y-75509523D01*
X138328571Y-75461904D01*
X138423809Y-75414285D01*
X138661904Y-75414285D01*
X138757142Y-75461904D01*
X138804761Y-75509523D01*
X138852380Y-75604761D01*
X138852380Y-75842857D01*
X138804761Y-75938095D01*
X138757142Y-75985714D01*
X170083333Y-79082380D02*
X169750000Y-78606190D01*
X169511904Y-79082380D02*
X169511904Y-78082380D01*
X169892857Y-78082380D01*
X169988095Y-78130000D01*
X170035714Y-78177619D01*
X170083333Y-78272857D01*
X170083333Y-78415714D01*
X170035714Y-78510952D01*
X169988095Y-78558571D01*
X169892857Y-78606190D01*
X169511904Y-78606190D01*
X170416666Y-78082380D02*
X171035714Y-78082380D01*
X170702380Y-78463333D01*
X170845238Y-78463333D01*
X170940476Y-78510952D01*
X170988095Y-78558571D01*
X171035714Y-78653809D01*
X171035714Y-78891904D01*
X170988095Y-78987142D01*
X170940476Y-79034761D01*
X170845238Y-79082380D01*
X170559523Y-79082380D01*
X170464285Y-79034761D01*
X170416666Y-78987142D01*
X158661904Y-94042380D02*
X158661904Y-93042380D01*
X158900000Y-93042380D01*
X159042857Y-93090000D01*
X159138095Y-93185238D01*
X159185714Y-93280476D01*
X159233333Y-93470952D01*
X159233333Y-93613809D01*
X159185714Y-93804285D01*
X159138095Y-93899523D01*
X159042857Y-93994761D01*
X158900000Y-94042380D01*
X158661904Y-94042380D01*
X159614285Y-93137619D02*
X159661904Y-93090000D01*
X159757142Y-93042380D01*
X159995238Y-93042380D01*
X160090476Y-93090000D01*
X160138095Y-93137619D01*
X160185714Y-93232857D01*
X160185714Y-93328095D01*
X160138095Y-93470952D01*
X159566666Y-94042380D01*
X160185714Y-94042380D01*
X167388095Y-63552380D02*
X167388095Y-62552380D01*
X167388095Y-63028571D02*
X167959523Y-63028571D01*
X167959523Y-63552380D02*
X167959523Y-62552380D01*
X168388095Y-62647619D02*
X168435714Y-62600000D01*
X168530952Y-62552380D01*
X168769047Y-62552380D01*
X168864285Y-62600000D01*
X168911904Y-62647619D01*
X168959523Y-62742857D01*
X168959523Y-62838095D01*
X168911904Y-62980952D01*
X168340476Y-63552380D01*
X168959523Y-63552380D01*
X93501904Y-85922380D02*
X93501904Y-84922380D01*
X93740000Y-84922380D01*
X93882857Y-84970000D01*
X93978095Y-85065238D01*
X94025714Y-85160476D01*
X94073333Y-85350952D01*
X94073333Y-85493809D01*
X94025714Y-85684285D01*
X93978095Y-85779523D01*
X93882857Y-85874761D01*
X93740000Y-85922380D01*
X93501904Y-85922380D01*
X95025714Y-85922380D02*
X94454285Y-85922380D01*
X94740000Y-85922380D02*
X94740000Y-84922380D01*
X94644761Y-85065238D01*
X94549523Y-85160476D01*
X94454285Y-85208095D01*
X112483095Y-88402380D02*
X112483095Y-87402380D01*
X113054523Y-88402380D02*
X112625952Y-87830952D01*
X113054523Y-87402380D02*
X112483095Y-87973809D01*
X163833333Y-79082380D02*
X163500000Y-78606190D01*
X163261904Y-79082380D02*
X163261904Y-78082380D01*
X163642857Y-78082380D01*
X163738095Y-78130000D01*
X163785714Y-78177619D01*
X163833333Y-78272857D01*
X163833333Y-78415714D01*
X163785714Y-78510952D01*
X163738095Y-78558571D01*
X163642857Y-78606190D01*
X163261904Y-78606190D01*
X164214285Y-78177619D02*
X164261904Y-78130000D01*
X164357142Y-78082380D01*
X164595238Y-78082380D01*
X164690476Y-78130000D01*
X164738095Y-78177619D01*
X164785714Y-78272857D01*
X164785714Y-78368095D01*
X164738095Y-78510952D01*
X164166666Y-79082380D01*
X164785714Y-79082380D01*
X123304761Y-104883333D02*
X123352380Y-104740476D01*
X123352380Y-104502380D01*
X123304761Y-104407142D01*
X123257142Y-104359523D01*
X123161904Y-104311904D01*
X123066666Y-104311904D01*
X122971428Y-104359523D01*
X122923809Y-104407142D01*
X122876190Y-104502380D01*
X122828571Y-104692857D01*
X122780952Y-104788095D01*
X122733333Y-104835714D01*
X122638095Y-104883333D01*
X122542857Y-104883333D01*
X122447619Y-104835714D01*
X122400000Y-104788095D01*
X122352380Y-104692857D01*
X122352380Y-104454761D01*
X122400000Y-104311904D01*
X122352380Y-103978571D02*
X123352380Y-103740476D01*
X122638095Y-103550000D01*
X123352380Y-103359523D01*
X122352380Y-103121428D01*
X123352380Y-102216666D02*
X123352380Y-102788095D01*
X123352380Y-102502380D02*
X122352380Y-102502380D01*
X122495238Y-102597619D01*
X122590476Y-102692857D01*
X122638095Y-102788095D01*
X123797142Y-115312380D02*
X123463809Y-114836190D01*
X123225714Y-115312380D02*
X123225714Y-114312380D01*
X123606666Y-114312380D01*
X123701904Y-114360000D01*
X123749523Y-114407619D01*
X123797142Y-114502857D01*
X123797142Y-114645714D01*
X123749523Y-114740952D01*
X123701904Y-114788571D01*
X123606666Y-114836190D01*
X123225714Y-114836190D01*
X124749523Y-115312380D02*
X124178095Y-115312380D01*
X124463809Y-115312380D02*
X124463809Y-114312380D01*
X124368571Y-114455238D01*
X124273333Y-114550476D01*
X124178095Y-114598095D01*
X125368571Y-114312380D02*
X125463809Y-114312380D01*
X125559047Y-114360000D01*
X125606666Y-114407619D01*
X125654285Y-114502857D01*
X125701904Y-114693333D01*
X125701904Y-114931428D01*
X125654285Y-115121904D01*
X125606666Y-115217142D01*
X125559047Y-115264761D01*
X125463809Y-115312380D01*
X125368571Y-115312380D01*
X125273333Y-115264761D01*
X125225714Y-115217142D01*
X125178095Y-115121904D01*
X125130476Y-114931428D01*
X125130476Y-114693333D01*
X125178095Y-114502857D01*
X125225714Y-114407619D01*
X125273333Y-114360000D01*
X125368571Y-114312380D01*
X115113333Y-116032380D02*
X114780000Y-115556190D01*
X114541904Y-116032380D02*
X114541904Y-115032380D01*
X114922857Y-115032380D01*
X115018095Y-115080000D01*
X115065714Y-115127619D01*
X115113333Y-115222857D01*
X115113333Y-115365714D01*
X115065714Y-115460952D01*
X115018095Y-115508571D01*
X114922857Y-115556190D01*
X114541904Y-115556190D01*
X115589523Y-116032380D02*
X115780000Y-116032380D01*
X115875238Y-115984761D01*
X115922857Y-115937142D01*
X116018095Y-115794285D01*
X116065714Y-115603809D01*
X116065714Y-115222857D01*
X116018095Y-115127619D01*
X115970476Y-115080000D01*
X115875238Y-115032380D01*
X115684761Y-115032380D01*
X115589523Y-115080000D01*
X115541904Y-115127619D01*
X115494285Y-115222857D01*
X115494285Y-115460952D01*
X115541904Y-115556190D01*
X115589523Y-115603809D01*
X115684761Y-115651428D01*
X115875238Y-115651428D01*
X115970476Y-115603809D01*
X116018095Y-115556190D01*
X116065714Y-115460952D01*
X157614761Y-101477619D02*
X157519523Y-101430000D01*
X157424285Y-101334761D01*
X157281428Y-101191904D01*
X157186190Y-101144285D01*
X157090952Y-101144285D01*
X157138571Y-101382380D02*
X157043333Y-101334761D01*
X156948095Y-101239523D01*
X156900476Y-101049047D01*
X156900476Y-100715714D01*
X156948095Y-100525238D01*
X157043333Y-100430000D01*
X157138571Y-100382380D01*
X157329047Y-100382380D01*
X157424285Y-100430000D01*
X157519523Y-100525238D01*
X157567142Y-100715714D01*
X157567142Y-101049047D01*
X157519523Y-101239523D01*
X157424285Y-101334761D01*
X157329047Y-101382380D01*
X157138571Y-101382380D01*
X158519523Y-101382380D02*
X157948095Y-101382380D01*
X158233809Y-101382380D02*
X158233809Y-100382380D01*
X158138571Y-100525238D01*
X158043333Y-100620476D01*
X157948095Y-100668095D01*
D11*
X97101666Y-74504523D02*
X97101666Y-75411666D01*
X97041190Y-75593095D01*
X96920238Y-75714047D01*
X96738809Y-75774523D01*
X96617857Y-75774523D01*
X98371666Y-75774523D02*
X97645952Y-75774523D01*
X98008809Y-75774523D02*
X98008809Y-74504523D01*
X97887857Y-74685952D01*
X97766904Y-74806904D01*
X97645952Y-74867380D01*
D10*
X167388095Y-134852380D02*
X167388095Y-133852380D01*
X167388095Y-134328571D02*
X167959523Y-134328571D01*
X167959523Y-134852380D02*
X167959523Y-133852380D01*
X168959523Y-134852380D02*
X168388095Y-134852380D01*
X168673809Y-134852380D02*
X168673809Y-133852380D01*
X168578571Y-133995238D01*
X168483333Y-134090476D01*
X168388095Y-134138095D01*
X90696666Y-137054285D02*
X90696666Y-136578095D01*
X90982380Y-137149523D02*
X89982380Y-136816190D01*
X90982380Y-136482857D01*
X90982380Y-135625714D02*
X90982380Y-136197142D01*
X90982380Y-135911428D02*
X89982380Y-135911428D01*
X90125238Y-136006666D01*
X90220476Y-136101904D01*
X90268095Y-136197142D01*
X94987619Y-124358095D02*
X94178095Y-124358095D01*
X94082857Y-124405714D01*
X94035238Y-124453333D01*
X93987619Y-124548571D01*
X93987619Y-124739047D01*
X94035238Y-124834285D01*
X94082857Y-124881904D01*
X94178095Y-124929523D01*
X94987619Y-124929523D01*
X94035238Y-125358095D02*
X93987619Y-125500952D01*
X93987619Y-125739047D01*
X94035238Y-125834285D01*
X94082857Y-125881904D01*
X94178095Y-125929523D01*
X94273333Y-125929523D01*
X94368571Y-125881904D01*
X94416190Y-125834285D01*
X94463809Y-125739047D01*
X94511428Y-125548571D01*
X94559047Y-125453333D01*
X94606666Y-125405714D01*
X94701904Y-125358095D01*
X94797142Y-125358095D01*
X94892380Y-125405714D01*
X94940000Y-125453333D01*
X94987619Y-125548571D01*
X94987619Y-125786666D01*
X94940000Y-125929523D01*
X94511428Y-126691428D02*
X94463809Y-126834285D01*
X94416190Y-126881904D01*
X94320952Y-126929523D01*
X94178095Y-126929523D01*
X94082857Y-126881904D01*
X94035238Y-126834285D01*
X93987619Y-126739047D01*
X93987619Y-126358095D01*
X94987619Y-126358095D01*
X94987619Y-126691428D01*
X94940000Y-126786666D01*
X94892380Y-126834285D01*
X94797142Y-126881904D01*
X94701904Y-126881904D01*
X94606666Y-126834285D01*
X94559047Y-126786666D01*
X94511428Y-126691428D01*
X94511428Y-126358095D01*
X146002380Y-86306666D02*
X145526190Y-86640000D01*
X146002380Y-86878095D02*
X145002380Y-86878095D01*
X145002380Y-86497142D01*
X145050000Y-86401904D01*
X145097619Y-86354285D01*
X145192857Y-86306666D01*
X145335714Y-86306666D01*
X145430952Y-86354285D01*
X145478571Y-86401904D01*
X145526190Y-86497142D01*
X145526190Y-86878095D01*
X145335714Y-85449523D02*
X146002380Y-85449523D01*
X144954761Y-85687619D02*
X145669047Y-85925714D01*
X145669047Y-85306666D01*
D12*
X160037000Y-115415000D02*
X160037000Y-118565000D01*
X160037000Y-115415000D02*
X158337000Y-115415000D01*
X158337000Y-115415000D02*
X158337000Y-118565000D01*
X129770000Y-88170000D02*
X131020000Y-88170000D01*
X131260000Y-95125563D02*
X131260000Y-92440000D01*
X130395000Y-87545000D02*
X130395000Y-88795000D01*
X141780000Y-85670000D02*
X141780000Y-89420000D01*
X131260000Y-86734437D02*
X132324437Y-85670000D01*
X131260000Y-95125563D02*
X132324437Y-96190000D01*
X132324437Y-96190000D02*
X141780000Y-96190000D01*
X131260000Y-86734437D02*
X131260000Y-89420000D01*
X132324437Y-85670000D02*
X141780000Y-85670000D01*
X141780000Y-96190000D02*
X141780000Y-92440000D01*
X130660000Y-63690000D02*
X130660000Y-70450000D01*
X134080000Y-63690000D02*
X130660000Y-63690000D01*
X134080000Y-70450000D02*
X134080000Y-63690000D01*
X155750000Y-121667564D02*
X155750000Y-121213436D01*
X154280000Y-121667564D02*
X154280000Y-121213436D01*
X137345000Y-72771252D02*
X137345000Y-72248748D01*
X135875000Y-72771252D02*
X135875000Y-72248748D01*
D13*
X183430000Y-92962000D02*
X194630000Y-92962000D01*
X183430000Y-107962000D02*
X183430000Y-92962000D01*
X194630000Y-107962000D02*
X183430000Y-107962000D01*
X194630000Y-92962000D02*
X194630000Y-107962000D01*
D14*
X188680000Y-92112000D02*
G75*
G03*
X188680000Y-92112000I-50000J0D01*
G01*
D12*
X133677064Y-72615000D02*
X133222936Y-72615000D01*
X133677064Y-74085000D02*
X133222936Y-74085000D01*
X151815000Y-79480000D02*
X151815000Y-84680000D01*
X157115000Y-79480000D02*
X151815000Y-79480000D01*
X151815000Y-84680000D02*
X153465000Y-84680000D01*
X155465000Y-84680000D02*
X157115000Y-84680000D01*
X157115000Y-84680000D02*
X157115000Y-79480000D01*
X155465000Y-84680000D02*
G75*
G03*
X153465000Y-84680000I-1000000J0D01*
G01*
X145135000Y-64750000D02*
X140010000Y-64750000D01*
X146635000Y-74200000D02*
X145135000Y-74200000D01*
X145135000Y-63800000D02*
X145135000Y-64750000D01*
X145135000Y-73250000D02*
X144035000Y-73250000D01*
X145135000Y-74200000D02*
X145135000Y-73250000D01*
X146635000Y-63800000D02*
X145135000Y-63800000D01*
X106300000Y-114150000D02*
X90500000Y-114150000D01*
X113500000Y-112350000D02*
X113500000Y-94350000D01*
X113500000Y-94350000D02*
X113500000Y-88950000D01*
X90500000Y-112350000D02*
X90500000Y-92350000D01*
X113500000Y-88950000D02*
X90500000Y-88950000D01*
X113500000Y-114150000D02*
X113500000Y-112350000D01*
X90500000Y-92350000D02*
X90500000Y-89350000D01*
X90500000Y-112350000D02*
X90500000Y-114150000D01*
X106300000Y-114150000D02*
X113500000Y-114150000D01*
X90500000Y-88950000D02*
X90500000Y-89350000D01*
X91000000Y-113350000D02*
X94000000Y-113350000D01*
X94000000Y-113350000D02*
X94000000Y-110350000D01*
X94000000Y-110350000D02*
X91000000Y-110350000D01*
X91000000Y-110350000D02*
X91000000Y-113350000D01*
X93618034Y-111850000D02*
G75*
G03*
X93618034Y-111850000I-1118034J0D01*
G01*
X149620000Y-118760000D02*
X154920000Y-118760000D01*
X149620000Y-113560000D02*
X149620000Y-118760000D01*
X151270000Y-113560000D02*
X149620000Y-113560000D01*
X154920000Y-113560000D02*
X153270000Y-113560000D01*
X154920000Y-118760000D02*
X154920000Y-113560000D01*
X151270000Y-113560000D02*
G75*
G03*
X153270000Y-113560000I1000000J0D01*
G01*
X128665563Y-64340000D02*
X129730000Y-65404437D01*
X128665563Y-64340000D02*
X125980000Y-64340000D01*
X129730000Y-74860000D02*
X125980000Y-74860000D01*
X120274437Y-64340000D02*
X119210000Y-65404437D01*
X127855000Y-63475000D02*
X126605000Y-63475000D01*
X129730000Y-65404437D02*
X129730000Y-74860000D01*
X127230000Y-62850000D02*
X127230000Y-64100000D01*
X120274437Y-64340000D02*
X122960000Y-64340000D01*
X119210000Y-65404437D02*
X119210000Y-74860000D01*
X119210000Y-74860000D02*
X122960000Y-74860000D01*
X172277000Y-100512000D02*
X172277000Y-104112000D01*
X181227000Y-92662000D02*
X181227000Y-108262000D01*
X166377000Y-106512000D02*
X168877000Y-106512000D01*
X166877000Y-102312000D02*
X166877000Y-98712000D01*
X172277000Y-104112000D02*
X165477000Y-104112000D01*
X161427000Y-92662000D02*
X181227000Y-92662000D01*
X168877000Y-94512000D02*
X168877000Y-98712000D01*
X166877000Y-98712000D02*
X170877000Y-98712000D01*
X170877000Y-102312000D02*
X166877000Y-102312000D01*
X181227000Y-108262000D02*
X161427000Y-108262000D01*
X161427000Y-92662000D02*
X161427000Y-99262000D01*
X172277000Y-100512000D02*
X173777000Y-100512000D01*
X168877000Y-102312000D02*
X168877000Y-106512000D01*
X173777000Y-100512000D02*
X178377000Y-98012000D01*
X165477000Y-100512000D02*
X165477000Y-104112000D01*
X165477000Y-100512000D02*
X164677000Y-100512000D01*
X176977000Y-104662000D02*
X176977000Y-102212000D01*
X176977000Y-96262000D02*
X176977000Y-98762000D01*
X161427000Y-101662000D02*
X161427000Y-108262000D01*
X168877000Y-94512000D02*
X166377000Y-94512000D01*
X170877000Y-102312000D02*
X166877000Y-98712000D01*
X170877000Y-98712000D02*
X170877000Y-102312000D01*
X100650000Y-140480000D02*
X100650000Y-136880000D01*
X96199999Y-138680000D02*
G75*
G03*
X100638478Y-140518478I2600001J0D01*
G01*
X100638478Y-136841522D02*
G75*
G03*
X96200000Y-138680000I-1838478J-1838478D01*
G01*
X104135000Y-137572936D02*
X104135000Y-138027064D01*
X102665000Y-137572936D02*
X102665000Y-138027064D01*
D13*
X187120000Y-86940000D02*
X187120000Y-76440000D01*
X187120000Y-76440000D02*
X194720000Y-76440000D01*
X194720000Y-86940000D02*
X187120000Y-86940000D01*
X194720000Y-76440000D02*
X194720000Y-86940000D01*
D12*
X170887000Y-122715000D02*
X166887000Y-119115000D01*
X172287000Y-120915000D02*
X172287000Y-124515000D01*
X176987000Y-125065000D02*
X176987000Y-122615000D01*
X170887000Y-122715000D02*
X166887000Y-122715000D01*
X166887000Y-119115000D02*
X170887000Y-119115000D01*
X170887000Y-119115000D02*
X170887000Y-122715000D01*
X168887000Y-114915000D02*
X168887000Y-119115000D01*
X161437000Y-113065000D02*
X161437000Y-119665000D01*
X181237000Y-113065000D02*
X181237000Y-128665000D01*
X168887000Y-122715000D02*
X168887000Y-126915000D01*
X166387000Y-126915000D02*
X168887000Y-126915000D01*
X165487000Y-120915000D02*
X165487000Y-124515000D01*
X161437000Y-113065000D02*
X181237000Y-113065000D01*
X168887000Y-114915000D02*
X166387000Y-114915000D01*
X176987000Y-116665000D02*
X176987000Y-119165000D01*
X172287000Y-120915000D02*
X173787000Y-120915000D01*
X173787000Y-120915000D02*
X178387000Y-118415000D01*
X166887000Y-122715000D02*
X166887000Y-119115000D01*
X181237000Y-128665000D02*
X161437000Y-128665000D01*
X172287000Y-124515000D02*
X165487000Y-124515000D01*
X165487000Y-120915000D02*
X164687000Y-120915000D01*
X161437000Y-122065000D02*
X161437000Y-128665000D01*
X115845000Y-72468323D02*
X110555000Y-72468323D01*
X118050000Y-69628323D02*
X114441000Y-69628323D01*
X117058000Y-71428323D02*
X114441000Y-71428323D01*
X111959000Y-70388323D02*
X108655000Y-70388323D01*
X111959000Y-69628323D02*
X108350000Y-69628323D01*
X115909000Y-72428323D02*
X110491000Y-72428323D01*
X111959000Y-69428323D02*
X108293000Y-69428323D01*
X118279000Y-68227323D02*
X108121000Y-68227323D01*
X111959000Y-70468323D02*
X108696000Y-70468323D01*
X111959000Y-70028323D02*
X108493000Y-70028323D01*
X111959000Y-69588323D02*
X108338000Y-69588323D01*
X117890000Y-70068323D02*
X114441000Y-70068323D01*
X117764000Y-70348323D02*
X114441000Y-70348323D01*
X116636000Y-71868323D02*
X109764000Y-71868323D01*
X118190000Y-69068323D02*
X108210000Y-69068323D01*
X117547000Y-70748323D02*
X114441000Y-70748323D01*
X118107000Y-69428323D02*
X114441000Y-69428323D01*
X111959000Y-69988323D02*
X108477000Y-69988323D01*
X117220000Y-71228323D02*
X114441000Y-71228323D01*
X111959000Y-69748323D02*
X108389000Y-69748323D01*
X111959000Y-71188323D02*
X109150000Y-71188323D01*
X118211000Y-68948323D02*
X108189000Y-68948323D01*
X116356000Y-72108323D02*
X110044000Y-72108323D01*
X117473000Y-70868323D02*
X114441000Y-70868323D01*
X111959000Y-69948323D02*
X108462000Y-69948323D01*
X118218000Y-68908323D02*
X108182000Y-68908323D01*
X118280000Y-68187323D02*
X108120000Y-68187323D01*
X117704000Y-70468323D02*
X114441000Y-70468323D01*
X116501000Y-71988323D02*
X109899000Y-71988323D01*
X111959000Y-71588323D02*
X109484000Y-71588323D01*
X115325000Y-72748323D02*
X111075000Y-72748323D01*
X111959000Y-69868323D02*
X108432000Y-69868323D01*
X117640000Y-70588323D02*
X114441000Y-70588323D01*
X118011000Y-69748323D02*
X114441000Y-69748323D01*
X111959000Y-71508323D02*
X109411000Y-71508323D01*
X111959000Y-71628323D02*
X109521000Y-71628323D01*
X118085000Y-69508323D02*
X114441000Y-69508323D01*
X118138000Y-69308323D02*
X108262000Y-69308323D01*
X117745000Y-70388323D02*
X114441000Y-70388323D01*
X116145000Y-72268323D02*
X110255000Y-72268323D01*
X116989000Y-71508323D02*
X114441000Y-71508323D01*
X117125000Y-71348323D02*
X114441000Y-71348323D01*
X111959000Y-70068323D02*
X108510000Y-70068323D01*
X117189000Y-71268323D02*
X114441000Y-71268323D01*
X118268000Y-68467323D02*
X108132000Y-68467323D01*
X117310000Y-71108323D02*
X114441000Y-71108323D01*
X111959000Y-71228323D02*
X109180000Y-71228323D01*
X118275000Y-68347323D02*
X108125000Y-68347323D01*
X118278000Y-68267323D02*
X108122000Y-68267323D01*
X116200000Y-72228323D02*
X110200000Y-72228323D01*
X111959000Y-70908323D02*
X108953000Y-70908323D01*
X118156000Y-69228323D02*
X108244000Y-69228323D01*
X111959000Y-71028323D02*
X109034000Y-71028323D01*
X111959000Y-70708323D02*
X108829000Y-70708323D01*
X118280000Y-68147323D02*
X108120000Y-68147323D01*
X111959000Y-70828323D02*
X108902000Y-70828323D01*
X118258000Y-68587323D02*
X108142000Y-68587323D01*
X111959000Y-70228323D02*
X108579000Y-70228323D01*
X118265000Y-68507323D02*
X108135000Y-68507323D01*
X115144000Y-72828323D02*
X111256000Y-72828323D01*
X116953000Y-71548323D02*
X114441000Y-71548323D01*
X117338000Y-71068323D02*
X114441000Y-71068323D01*
X111959000Y-71268323D02*
X109211000Y-71268323D01*
X111959000Y-70508323D02*
X108717000Y-70508323D01*
X111959000Y-70548323D02*
X108738000Y-70548323D01*
X118240000Y-68747323D02*
X108160000Y-68747323D01*
X114830000Y-72948323D02*
X111570000Y-72948323D01*
X115710000Y-72548323D02*
X110690000Y-72548323D01*
X111959000Y-70868323D02*
X108927000Y-70868323D01*
X111959000Y-71068323D02*
X109062000Y-71068323D01*
X116406000Y-72068323D02*
X109994000Y-72068323D01*
X118128000Y-69348323D02*
X108272000Y-69348323D01*
X118024000Y-69708323D02*
X114441000Y-69708323D01*
X115237000Y-72788323D02*
X111163000Y-72788323D01*
X116720000Y-71788323D02*
X114441000Y-71788323D01*
X111959000Y-69548323D02*
X108326000Y-69548323D01*
X115409000Y-72708323D02*
X110991000Y-72708323D01*
X111959000Y-71348323D02*
X109275000Y-71348323D01*
X111959000Y-71388323D02*
X109308000Y-71388323D01*
X111959000Y-70588323D02*
X108760000Y-70588323D01*
X118204000Y-68988323D02*
X108196000Y-68988323D01*
X111959000Y-69668323D02*
X108363000Y-69668323D01*
X114430000Y-73068323D02*
X111970000Y-73068323D01*
X111959000Y-71548323D02*
X109447000Y-71548323D01*
X118235000Y-68787323D02*
X108165000Y-68787323D01*
X118277000Y-68307323D02*
X108123000Y-68307323D01*
X111959000Y-70428323D02*
X108675000Y-70428323D01*
X116075000Y-62627677D02*
X116075000Y-63627677D01*
X114578000Y-73028323D02*
X111822000Y-73028323D01*
X117968000Y-69868323D02*
X114441000Y-69868323D01*
X116089000Y-72308323D02*
X110311000Y-72308323D01*
X111959000Y-71428323D02*
X109342000Y-71428323D01*
X111959000Y-69508323D02*
X108315000Y-69508323D01*
X117683000Y-70508323D02*
X114441000Y-70508323D01*
X118097000Y-69468323D02*
X114441000Y-69468323D01*
X111959000Y-71828323D02*
X109722000Y-71828323D01*
X111959000Y-71708323D02*
X109599000Y-71708323D01*
X115970000Y-72388323D02*
X110430000Y-72388323D01*
X118147000Y-69268323D02*
X108253000Y-69268323D01*
X111959000Y-69788323D02*
X108403000Y-69788323D01*
X117784000Y-70308323D02*
X114441000Y-70308323D01*
X111959000Y-70188323D02*
X108561000Y-70188323D01*
X111959000Y-70988323D02*
X109006000Y-70988323D01*
X116306000Y-72148323D02*
X110094000Y-72148323D01*
X117394000Y-70988323D02*
X114441000Y-70988323D01*
X117447000Y-70908323D02*
X114441000Y-70908323D01*
X118062000Y-69588323D02*
X114441000Y-69588323D01*
X117954000Y-69908323D02*
X114441000Y-69908323D01*
X118165000Y-69188323D02*
X108235000Y-69188323D01*
X111959000Y-69468323D02*
X108303000Y-69468323D01*
X111959000Y-71748323D02*
X109639000Y-71748323D01*
X117280000Y-71148323D02*
X114441000Y-71148323D01*
X118230000Y-68828323D02*
X108170000Y-68828323D01*
X118118000Y-69388323D02*
X114441000Y-69388323D01*
X118174000Y-69148323D02*
X108226000Y-69148323D01*
X118074000Y-69548323D02*
X114441000Y-69548323D01*
X117523000Y-70788323D02*
X114441000Y-70788323D01*
X117997000Y-69788323D02*
X114441000Y-69788323D01*
X117595000Y-70668323D02*
X114441000Y-70668323D01*
X117874000Y-70108323D02*
X114441000Y-70108323D01*
X116454000Y-72028323D02*
X109946000Y-72028323D01*
X114062000Y-73148323D02*
X112338000Y-73148323D01*
X116879000Y-71628323D02*
X114441000Y-71628323D01*
X117617000Y-70628323D02*
X114441000Y-70628323D01*
X111959000Y-70748323D02*
X108853000Y-70748323D01*
X114942000Y-72908323D02*
X111458000Y-72908323D01*
X118254000Y-68627323D02*
X108146000Y-68627323D01*
X116916000Y-71588323D02*
X114441000Y-71588323D01*
X111959000Y-70668323D02*
X108805000Y-70668323D01*
X116678000Y-71828323D02*
X114441000Y-71828323D01*
X114710000Y-72988323D02*
X111690000Y-72988323D01*
X117498000Y-70828323D02*
X114441000Y-70828323D01*
X116761000Y-71748323D02*
X114441000Y-71748323D01*
X111959000Y-70948323D02*
X108979000Y-70948323D01*
X117923000Y-69988323D02*
X114441000Y-69988323D01*
X111959000Y-71308323D02*
X109243000Y-71308323D01*
X117803000Y-70268323D02*
X114441000Y-70268323D01*
X111959000Y-71148323D02*
X109120000Y-71148323D01*
X111959000Y-70308323D02*
X108616000Y-70308323D01*
X115489000Y-72668323D02*
X110911000Y-72668323D01*
X117839000Y-70188323D02*
X114441000Y-70188323D01*
X116547000Y-71948323D02*
X109853000Y-71948323D01*
X117157000Y-71308323D02*
X114441000Y-71308323D01*
X117250000Y-71188323D02*
X114441000Y-71188323D01*
X111959000Y-69388323D02*
X108282000Y-69388323D01*
X115565000Y-72628323D02*
X110835000Y-72628323D01*
X111959000Y-71468323D02*
X109376000Y-71468323D01*
X117938000Y-69948323D02*
X114441000Y-69948323D01*
X117983000Y-69828323D02*
X114441000Y-69828323D01*
X111959000Y-71108323D02*
X109090000Y-71108323D01*
X117662000Y-70548323D02*
X114441000Y-70548323D01*
X117725000Y-70428323D02*
X114441000Y-70428323D01*
X118262000Y-68547323D02*
X108138000Y-68547323D01*
X118273000Y-68387323D02*
X108127000Y-68387323D01*
X118245000Y-68707323D02*
X108155000Y-68707323D01*
X118037000Y-69668323D02*
X114441000Y-69668323D01*
X111959000Y-70348323D02*
X108636000Y-70348323D01*
X111959000Y-70628323D02*
X108783000Y-70628323D01*
X117821000Y-70228323D02*
X114441000Y-70228323D01*
X113799000Y-73188323D02*
X112601000Y-73188323D01*
X115779000Y-72508323D02*
X110621000Y-72508323D01*
X115046000Y-72868323D02*
X111354000Y-72868323D01*
X117366000Y-71028323D02*
X114441000Y-71028323D01*
X117907000Y-70028323D02*
X114441000Y-70028323D01*
X115639000Y-72588323D02*
X110761000Y-72588323D01*
X111959000Y-69828323D02*
X108417000Y-69828323D01*
X116840000Y-71668323D02*
X114441000Y-71668323D01*
X118197000Y-69028323D02*
X108203000Y-69028323D01*
X114262000Y-73108323D02*
X112138000Y-73108323D01*
X118280000Y-68107323D02*
X108120000Y-68107323D01*
X118250000Y-68667323D02*
X108150000Y-68667323D01*
X111959000Y-71668323D02*
X109560000Y-71668323D01*
X111959000Y-70268323D02*
X108597000Y-70268323D01*
X118270000Y-68427323D02*
X108130000Y-68427323D01*
X117571000Y-70708323D02*
X114441000Y-70708323D01*
X117857000Y-70148323D02*
X114441000Y-70148323D01*
X116801000Y-71708323D02*
X114441000Y-71708323D01*
X111959000Y-70788323D02*
X108877000Y-70788323D01*
X116592000Y-71908323D02*
X109808000Y-71908323D01*
X118182000Y-69108323D02*
X108218000Y-69108323D01*
X111959000Y-71788323D02*
X109680000Y-71788323D01*
X117421000Y-70948323D02*
X114441000Y-70948323D01*
X111959000Y-70148323D02*
X108543000Y-70148323D01*
X116030000Y-72348323D02*
X110370000Y-72348323D01*
X116254000Y-72188323D02*
X110146000Y-72188323D01*
X111959000Y-69908323D02*
X108446000Y-69908323D01*
X117092000Y-71388323D02*
X114441000Y-71388323D01*
X116575000Y-63127677D02*
X115575000Y-63127677D01*
X111959000Y-69708323D02*
X108376000Y-69708323D01*
X118224000Y-68868323D02*
X108176000Y-68868323D01*
X111959000Y-70108323D02*
X108526000Y-70108323D01*
X117024000Y-71468323D02*
X114441000Y-71468323D01*
X118320000Y-68107323D02*
G75*
G03*
X118320000Y-68107323I-5120000J0D01*
G01*
X154935000Y-93175000D02*
X153285000Y-93175000D01*
X154935000Y-98375000D02*
X154935000Y-93175000D01*
X151285000Y-93175000D02*
X149635000Y-93175000D01*
X149635000Y-98375000D02*
X154935000Y-98375000D01*
X149635000Y-93175000D02*
X149635000Y-98375000D01*
X151285000Y-93175000D02*
G75*
G03*
X153285000Y-93175000I1000000J0D01*
G01*
X158262000Y-125375000D02*
X157612000Y-125375000D01*
X158262000Y-125375000D02*
X158912000Y-125375000D01*
X158262000Y-122255000D02*
X156587000Y-122255000D01*
X158262000Y-122255000D02*
X158912000Y-122255000D01*
X148090000Y-82611252D02*
X148090000Y-81188748D01*
X146270000Y-82611252D02*
X146270000Y-81188748D01*
X145507064Y-93755000D02*
X145052936Y-93755000D01*
X145507064Y-95225000D02*
X145052936Y-95225000D01*
X145267064Y-115625000D02*
X144812936Y-115625000D01*
X145267064Y-114155000D02*
X144812936Y-114155000D01*
X155812000Y-101251564D02*
X155812000Y-100797436D01*
X154342000Y-101251564D02*
X154342000Y-100797436D01*
X135095000Y-76467064D02*
X135095000Y-76012936D01*
X133625000Y-76467064D02*
X133625000Y-76012936D01*
D13*
X194615000Y-128365000D02*
X183415000Y-128365000D01*
X183415000Y-128365000D02*
X183415000Y-113365000D01*
X183415000Y-113365000D02*
X194615000Y-113365000D01*
X194615000Y-113365000D02*
X194615000Y-128365000D01*
D14*
X188665000Y-112515000D02*
G75*
G03*
X188665000Y-112515000I-50000J0D01*
G01*
D12*
X119750000Y-79700000D02*
X117000000Y-79700000D01*
X119750000Y-92500000D02*
X117000000Y-92500000D01*
X116350000Y-91850000D02*
X116350000Y-80350000D01*
X129150000Y-80350000D02*
X129150000Y-91850000D01*
X128500000Y-79700000D02*
X125750000Y-79700000D01*
X128500000Y-92500000D02*
X125750000Y-92500000D01*
X116350000Y-91850000D02*
G75*
G03*
X117000000Y-92500000I650000J0D01*
G01*
X117000000Y-79700000D02*
G75*
G03*
X116350000Y-80350000I1J-650001D01*
G01*
X129150000Y-80350000D02*
G75*
G03*
X128500000Y-79700000I-650001J-1D01*
G01*
X128500000Y-92500000D02*
G75*
G03*
X129150000Y-91850000I0J650000D01*
G01*
D14*
X175022000Y-79612000D02*
X176872000Y-79612000D01*
X180722000Y-84037000D02*
X177222000Y-84037000D01*
X177222000Y-79337000D02*
X180722000Y-79337000D01*
X180722000Y-79337000D02*
X180722000Y-84037000D01*
X177222000Y-84037000D02*
X177222000Y-79337000D01*
D12*
X135875000Y-76471252D02*
X135875000Y-75948748D01*
X137345000Y-76471252D02*
X137345000Y-75948748D01*
X169522936Y-81360000D02*
X170977064Y-81360000D01*
X169522936Y-79540000D02*
X170977064Y-79540000D01*
X160077000Y-95005000D02*
X158377000Y-95005000D01*
X158377000Y-95005000D02*
X158377000Y-98155000D01*
X160077000Y-95005000D02*
X160077000Y-98155000D01*
X100255000Y-88070000D02*
X109995000Y-88070000D01*
X108450000Y-88070000D02*
X108450000Y-82630000D01*
X99345000Y-85350000D02*
X100255000Y-85350000D01*
X100255000Y-82630000D02*
X100255000Y-88070000D01*
X109995000Y-82630000D02*
X100255000Y-82630000D01*
X110905000Y-85350000D02*
X109995000Y-85350000D01*
X109995000Y-88070000D02*
X109995000Y-82630000D01*
X108570000Y-88070000D02*
X108570000Y-82630000D01*
X108330000Y-88070000D02*
X108330000Y-82630000D01*
X163272936Y-81360000D02*
X164727064Y-81360000D01*
X163272936Y-79540000D02*
X164727064Y-79540000D01*
X122070000Y-101180000D02*
X122070000Y-105920000D01*
X122070000Y-105920000D02*
X121670000Y-105920000D01*
X118670000Y-101180000D02*
X120730000Y-101180000D01*
X118670000Y-105920000D02*
X120730000Y-105920000D01*
X117330000Y-101180000D02*
X117330000Y-105920000D01*
X117330000Y-101180000D02*
X117730000Y-101180000D01*
X122070000Y-101180000D02*
X121670000Y-101180000D01*
X117330000Y-105920000D02*
X117730000Y-105920000D01*
X121107064Y-114045000D02*
X120652936Y-114045000D01*
X121107064Y-115515000D02*
X120652936Y-115515000D01*
X116545000Y-114547064D02*
X116545000Y-114092936D01*
X118015000Y-114547064D02*
X118015000Y-114092936D01*
X158302000Y-101877000D02*
X156627000Y-101877000D01*
X158302000Y-104997000D02*
X157652000Y-104997000D01*
X158302000Y-101877000D02*
X158952000Y-101877000D01*
X158302000Y-104997000D02*
X158952000Y-104997000D01*
D13*
X88750000Y-69415000D02*
X88750000Y-78415000D01*
X103250000Y-70415000D02*
X103200000Y-69415000D01*
D14*
X106200000Y-73915000D02*
X106200000Y-73915000D01*
D13*
X103200000Y-69415000D02*
X88750000Y-69415000D01*
X88750000Y-78415000D02*
X96500000Y-78415000D01*
D14*
X106300000Y-73915000D02*
X106300000Y-73915000D01*
X106300000Y-73915000D02*
X106300000Y-73915000D01*
X106300000Y-73915000D02*
G75*
G03*
X106200000Y-73915000I-50000J0D01*
G01*
X106300000Y-73915000D02*
G75*
G03*
X106200000Y-73915000I-50000J0D01*
G01*
X106200000Y-73915000D02*
G75*
G03*
X106300000Y-73915000I50000J0D01*
G01*
D12*
X87960000Y-121680000D02*
X98380000Y-121680000D01*
X128730000Y-119270000D02*
X93170000Y-119270000D01*
X131270000Y-119270000D02*
X131270000Y-116600000D01*
X87960000Y-129560000D02*
X87960000Y-121680000D01*
X131270000Y-131970000D02*
X93170000Y-131970000D01*
X98380000Y-129560000D02*
X87960000Y-129560000D01*
X128730000Y-116600000D02*
X90500000Y-116600000D01*
X93170000Y-131970000D02*
X93170000Y-134640000D01*
X98380000Y-121680000D02*
X98380000Y-129560000D01*
X90500000Y-134640000D02*
X90500000Y-129560000D01*
X128730000Y-119270000D02*
X128730000Y-116600000D01*
X128730000Y-119270000D02*
X131270000Y-119270000D01*
X90500000Y-116600000D02*
X90500000Y-121680000D01*
X90500000Y-134640000D02*
X133940000Y-134640000D01*
X133940000Y-134640000D02*
X133940000Y-116600000D01*
X93170000Y-119270000D02*
X93170000Y-116600000D01*
X133940000Y-116600000D02*
X131270000Y-116600000D01*
X131270000Y-131970000D02*
X131270000Y-134640000D01*
X146465000Y-86367064D02*
X146465000Y-85912936D01*
X147935000Y-86367064D02*
X147935000Y-85912936D01*
M02*
