G04 Created by GerbView*
%FSLAX35Y35*%
%MOMM*%
G75*
%ADD10C,0.0254*%
%ADD11C,0.4978*%
%ADD12R,0.0254X0.0254*%
%ADD13C,0.2997*%
%ADD14C,2.9997*%
%ADD15C,2.4994*%
%ADD16R,4.5999X1.0998*%
%ADD17R,9.3980X10.7975*%
%ADD18R,1.5977X1.3995*%
%ADD19R,1.5977X0.0000*%
%ADD20C,1.5977*%
%ADD21R,1.5977X1.5977*%
%ADD22R,1.9482X1.9482*%
%ADD23C,1.9482*%
%ADD24C,5.4585*%
%ADD25C,4.7396*%
%ADD26R,1.0490X1.4986*%
%ADD27R,1.0490X0.4496*%
%ADD28C,1.0490*%
%ADD29R,3.1979X3.1979*%
%ADD30R,3.1979X0.0000*%
%ADD31C,3.1979*%
%ADD32R,0.9982X0.9982*%
%ADD33R,1.9990X1.9990*%
%ADD34C,1.9990*%
%ADD35C,1.8999*%
%ADD36R,5.3975X2.8981*%
%ADD37R,1.8491X0.9500*%
%ADD38C,2.1996*%
%ADD39C,0.8992*%
%ADD40C,0.9982*%
%ADD41C,0.7493*%
%ADD42C,0.2489*%
%ADD43C,1.4986*%
%LNEXPORT*%
D02*
D10*
G36*
X16379330Y-08041730D02*
X16379310Y-08041750D01*
X16379290Y-08041770D01*
X16379270Y-08041790D01*
X16379330Y-08041730D01*
G37*
D11*
X16379350Y-08041700D03*
D10*
D11*
X16379350Y-08041700D03*
D10*
D11*
X16379350Y-08041700D03*
D10*
D11*
X16379350Y-08041700D03*
D10*
X16378441Y-08042618D02*
X16380218Y-08040841D01*
D12*
D10*
X16378135Y-08042161D02*
X16380484Y-08041378D01*
D12*
D10*
G36*
X16671830Y-08041730D02*
X16671810Y-08041750D01*
X16671790Y-08041770D01*
X16671769Y-08041790D01*
X16671830Y-08041730D01*
G37*
D11*
X16671850Y-08041700D03*
D10*
D11*
X16671850Y-08041700D03*
D10*
D11*
X16671850Y-08041700D03*
D10*
D11*
X16671850Y-08041700D03*
D10*
X16670941Y-08042618D02*
X16672718Y-08040841D01*
D12*
D10*
X16670635Y-08042161D02*
X16672984Y-08041378D01*
D12*
D10*
G36*
X15530930Y-12286229D02*
X15530910Y-12286249D01*
X15530890Y-12286269D01*
X15530870Y-12286289D01*
X15530930Y-12286229D01*
G37*
D13*
X15530950Y-12286199D03*
D10*
D13*
X15530950Y-12286199D03*
D10*
D13*
X15530950Y-12286199D03*
D10*
D13*
X15530950Y-12286199D03*
D10*
X15530041Y-12287118D02*
X15531818Y-12285341D01*
D12*
D10*
X15529735Y-12286661D02*
X15532084Y-12285878D01*
D12*
D10*
G36*
X15530930Y-12476229D02*
X15530910Y-12476249D01*
X15530890Y-12476269D01*
X15530870Y-12476289D01*
X15530930Y-12476229D01*
G37*
D13*
X15530950Y-12476199D03*
D10*
D13*
X15530950Y-12476199D03*
D10*
D13*
X15530950Y-12476199D03*
D10*
D13*
X15530950Y-12476199D03*
D10*
X15530041Y-12477118D02*
X15531818Y-12475341D01*
D12*
D10*
X15529735Y-12476661D02*
X15532084Y-12475878D01*
D12*
D10*
G36*
X15718430Y-12381229D02*
X15718410Y-12381249D01*
X15718390Y-12381269D01*
X15718370Y-12381289D01*
X15718430Y-12381229D01*
G37*
D13*
X15718450Y-12381199D03*
D10*
D13*
X15718450Y-12381199D03*
D10*
D13*
X15718450Y-12381199D03*
D10*
D13*
X15718450Y-12381199D03*
D10*
X15717541Y-12382118D02*
X15719318Y-12380341D01*
D12*
D10*
X15717235Y-12381661D02*
X15719584Y-12380878D01*
D12*
D10*
G36*
X11579980Y-08515030D02*
X11579960Y-08515050D01*
X11579940Y-08515070D01*
X11579920Y-08515090D01*
X11579980Y-08515030D01*
G37*
D11*
X11580000Y-08515000D03*
D10*
D11*
X11580000Y-08515000D03*
D10*
D11*
X11580000Y-08515000D03*
D10*
D11*
X11580000Y-08515000D03*
D10*
X11579091Y-08515918D02*
X11580868Y-08514141D01*
D12*
D10*
X11578785Y-08515461D02*
X11581134Y-08514678D01*
D12*
D10*
G36*
X11579980Y-08705029D02*
X11579960Y-08705050D01*
X11579940Y-08705070D01*
X11579920Y-08705089D01*
X11579980Y-08705029D01*
G37*
D11*
X11580000Y-08705000D03*
D10*
D11*
X11580000Y-08705000D03*
D10*
D11*
X11580000Y-08705000D03*
D10*
D11*
X11580000Y-08705000D03*
D10*
X11579091Y-08705918D02*
X11580868Y-08704141D01*
D12*
D10*
X11578785Y-08705461D02*
X11581134Y-08704678D01*
D12*
D10*
D14*
X16082200Y-12086200D03*
D10*
D15*
X16277200Y-12691199D03*
D10*
D14*
X17497200Y-12691199D03*
D10*
D14*
X17502200Y-11486200D03*
D10*
D15*
X16277200Y-11491200D03*
D10*
D14*
X16079700Y-10046200D03*
D10*
D15*
X16274700Y-10651199D03*
D10*
D14*
X17494700Y-10651199D03*
D10*
D14*
X17499700Y-09446200D03*
D10*
D15*
X16274700Y-09451200D03*
D10*
G36*
X15533430Y-10248729D02*
X15533410Y-10248750D01*
X15533390Y-10248770D01*
X15533370Y-10248789D01*
X15533430Y-10248729D01*
G37*
D13*
X15533450Y-10248700D03*
D10*
D13*
X15533450Y-10248700D03*
D10*
D13*
X15533450Y-10248700D03*
D10*
D13*
X15533450Y-10248700D03*
D10*
X15532541Y-10249618D02*
X15534318Y-10247841D01*
D12*
D10*
X15532235Y-10249161D02*
X15534584Y-10248378D01*
D12*
D10*
G36*
X15533430Y-10438729D02*
X15533410Y-10438750D01*
X15533390Y-10438770D01*
X15533370Y-10438789D01*
X15533430Y-10438729D01*
G37*
D13*
X15533450Y-10438700D03*
D10*
D13*
X15533450Y-10438700D03*
D10*
D13*
X15533450Y-10438700D03*
D10*
D13*
X15533450Y-10438700D03*
D10*
X15532541Y-10439618D02*
X15534318Y-10437841D01*
D12*
D10*
X15532235Y-10439161D02*
X15534584Y-10438378D01*
D12*
D10*
G36*
X15720930Y-10343729D02*
X15720910Y-10343750D01*
X15720890Y-10343770D01*
X15720870Y-10343789D01*
X15720930Y-10343729D01*
G37*
D13*
X15720950Y-10343700D03*
D10*
D13*
X15720950Y-10343700D03*
D10*
D13*
X15720950Y-10343700D03*
D10*
D13*
X15720950Y-10343700D03*
D10*
X15720041Y-10344618D02*
X15721818Y-10342841D01*
D12*
D10*
X15719735Y-10344161D02*
X15722084Y-10343378D01*
D12*
D10*
G36*
X11369980Y-08705029D02*
X11369960Y-08705050D01*
X11369940Y-08705070D01*
X11369920Y-08705089D01*
X11369980Y-08705029D01*
G37*
D11*
X11370000Y-08705000D03*
D10*
D11*
X11370000Y-08705000D03*
D10*
D11*
X11370000Y-08705000D03*
D10*
D11*
X11370000Y-08705000D03*
D10*
X11369091Y-08705918D02*
X11370868Y-08704141D01*
D12*
D10*
X11368785Y-08705461D02*
X11371134Y-08704678D01*
D12*
D10*
G36*
X11369980Y-08515030D02*
X11369960Y-08515050D01*
X11369940Y-08515070D01*
X11369920Y-08515090D01*
X11369980Y-08515030D01*
G37*
D11*
X11370000Y-08515000D03*
D10*
D11*
X11370000Y-08515000D03*
D10*
D11*
X11370000Y-08515000D03*
D10*
D11*
X11370000Y-08515000D03*
D10*
X11369091Y-08515918D02*
X11370868Y-08514141D01*
D12*
D10*
X11368785Y-08515461D02*
X11371134Y-08514678D01*
D12*
D10*
G36*
X14639680Y-11244980D02*
X14639660Y-11245000D01*
X14639640Y-11245020D01*
X14639620Y-11245040D01*
X14639680Y-11244980D01*
G37*
D11*
X14639700Y-11244950D03*
D10*
D11*
X14639700Y-11244950D03*
D10*
D11*
X14639700Y-11244950D03*
D10*
D11*
X14639700Y-11244950D03*
D10*
X14638791Y-11245868D02*
X14640568Y-11244091D01*
D12*
D10*
X14638485Y-11245411D02*
X14640834Y-11244628D01*
D12*
D10*
G36*
X14639680Y-11062480D02*
X14639660Y-11062500D01*
X14639640Y-11062520D01*
X14639620Y-11062540D01*
X14639680Y-11062480D01*
G37*
D11*
X14639700Y-11062450D03*
D10*
D11*
X14639700Y-11062450D03*
D10*
D11*
X14639700Y-11062450D03*
D10*
D11*
X14639700Y-11062450D03*
D10*
X14638791Y-11063368D02*
X14640568Y-11061591D01*
D12*
D10*
X14638485Y-11062911D02*
X14640834Y-11062128D01*
D12*
D10*
G36*
X13385930Y-08856230D02*
X13385910Y-08856250D01*
X13385890Y-08856270D01*
X13385870Y-08856290D01*
X13385930Y-08856230D01*
G37*
D11*
X13385950Y-08856200D03*
D10*
D11*
X13385950Y-08856200D03*
D10*
D11*
X13385950Y-08856200D03*
D10*
D11*
X13385950Y-08856200D03*
D10*
X13385041Y-08857118D02*
X13386818Y-08855341D01*
D12*
D10*
X13384735Y-08856661D02*
X13387084Y-08855878D01*
D12*
D10*
G36*
X13568430Y-08856230D02*
X13568410Y-08856250D01*
X13568390Y-08856270D01*
X13568370Y-08856290D01*
X13568430Y-08856230D01*
G37*
D11*
X13568450Y-08856200D03*
D10*
D11*
X13568450Y-08856200D03*
D10*
D11*
X13568450Y-08856200D03*
D10*
D11*
X13568450Y-08856200D03*
D10*
X13567541Y-08857118D02*
X13569318Y-08855341D01*
D12*
D10*
X13567235Y-08856661D02*
X13569584Y-08855878D01*
D12*
D10*
D16*
X10683900Y-08832799D03*
D10*
D16*
X10683900Y-08662800D03*
D10*
D17*
X9768900Y-08492800D03*
D10*
D16*
X10683900Y-08492800D03*
D10*
D16*
X10683900Y-08322800D03*
D10*
D16*
X10683900Y-08152800D03*
D10*
G36*
X15304680Y-10193729D02*
X15304660Y-10193750D01*
X15304640Y-10193770D01*
X15304620Y-10193789D01*
X15304680Y-10193729D01*
G37*
D11*
X15304700Y-10193700D03*
D10*
D11*
X15304700Y-10193700D03*
D10*
D11*
X15304700Y-10193700D03*
D10*
D11*
X15304700Y-10193700D03*
D10*
X15303791Y-10194618D02*
X15305568Y-10192841D01*
D12*
D10*
X15303485Y-10194161D02*
X15305834Y-10193378D01*
D12*
D10*
G36*
X15304680Y-10011229D02*
X15304660Y-10011250D01*
X15304640Y-10011270D01*
X15304620Y-10011289D01*
X15304680Y-10011229D01*
G37*
D11*
X15304700Y-10011200D03*
D10*
D11*
X15304700Y-10011200D03*
D10*
D11*
X15304700Y-10011200D03*
D10*
D11*
X15304700Y-10011200D03*
D10*
X15303791Y-10012118D02*
X15305568Y-10010341D01*
D12*
D10*
X15303485Y-10011661D02*
X15305834Y-10010878D01*
D12*
D10*
G36*
X9762180Y-10421979D02*
X9762160Y-10422000D01*
X9762140Y-10422019D01*
X9762120Y-10422039D01*
X9762180Y-10421979D01*
G37*
D11*
X9762200Y-10421949D03*
D10*
D11*
X9762200Y-10421949D03*
D10*
D11*
X9762200Y-10421949D03*
D10*
D11*
X9762200Y-10421949D03*
D10*
X9761291Y-10422868D02*
X9763068Y-10421091D01*
D12*
D10*
X9760985Y-10422411D02*
X9763334Y-10421628D01*
D12*
D10*
G36*
X9762180Y-09621979D02*
X9762160Y-09622000D01*
X9762140Y-09622020D01*
X9762120Y-09622039D01*
X9762180Y-09621979D01*
G37*
D11*
X9762200Y-09621950D03*
D10*
D11*
X9762200Y-09621950D03*
D10*
D11*
X9762200Y-09621950D03*
D10*
D11*
X9762200Y-09621950D03*
D10*
X9761291Y-09622868D02*
X9763068Y-09621091D01*
D12*
D10*
X9760985Y-09622411D02*
X9763334Y-09621628D01*
D12*
D10*
G36*
X12117180Y-06931229D02*
X12117160Y-06931250D01*
X12117140Y-06931269D01*
X12117120Y-06931289D01*
X12117180Y-06931229D01*
G37*
D11*
X12117200Y-06931199D03*
D10*
D11*
X12117200Y-06931199D03*
D10*
D11*
X12117200Y-06931199D03*
D10*
D11*
X12117200Y-06931199D03*
D10*
X12116291Y-06932118D02*
X12118068Y-06930341D01*
D12*
D10*
X12115985Y-06931661D02*
X12118334Y-06930878D01*
D12*
D10*
G36*
X12117180Y-07201229D02*
X12117160Y-07201250D01*
X12117140Y-07201269D01*
X12117120Y-07201290D01*
X12117180Y-07201229D01*
G37*
D11*
X12117200Y-07201199D03*
D10*
D11*
X12117200Y-07201199D03*
D10*
D11*
X12117200Y-07201199D03*
D10*
D11*
X12117200Y-07201199D03*
D10*
X12116291Y-07202118D02*
X12118068Y-07200341D01*
D12*
D10*
X12115985Y-07201661D02*
X12118334Y-07200878D01*
D12*
D10*
D18*
X10522200Y-11076200D03*
D10*
D18*
X11242200Y-11076200D03*
D10*
D18*
X11242200Y-11376200D03*
D10*
D18*
X10522200Y-11376200D03*
D10*
D19*
X14274000Y-10078000D03*
D10*
D20*
X14274000Y-10078000D03*
D10*
D20*
X14274000Y-10078000D03*
D10*
D19*
X14274000Y-10332000D03*
D10*
D20*
X14274000Y-10332000D03*
D10*
D20*
X14274000Y-10332000D03*
D10*
D19*
X14274000Y-10586000D03*
D10*
D20*
X14274000Y-10586000D03*
D10*
D20*
X14274000Y-10586000D03*
D10*
D19*
X14274000Y-10840000D03*
D10*
D20*
X14274000Y-10840000D03*
D10*
D20*
X14274000Y-10840000D03*
D10*
D19*
X14274000Y-11094000D03*
D10*
D20*
X14274000Y-11094000D03*
D10*
D20*
X14274000Y-11094000D03*
D10*
D19*
X14274000Y-11348000D03*
D10*
D20*
X14274000Y-11348000D03*
D10*
D20*
X14274000Y-11348000D03*
D10*
D19*
X14274000Y-11602000D03*
D10*
D20*
X14274000Y-11602000D03*
D10*
D20*
X14274000Y-11602000D03*
D10*
D19*
X14274000Y-11856000D03*
D10*
D20*
X14274000Y-11856000D03*
D10*
D20*
X14274000Y-11856000D03*
D10*
D19*
X14274000Y-12110000D03*
D10*
D20*
X14274000Y-12110000D03*
D10*
D20*
X14274000Y-12110000D03*
D10*
D19*
X14274000Y-12364000D03*
D10*
D20*
X14274000Y-12364000D03*
D10*
D20*
X14274000Y-12364000D03*
D10*
D19*
X14274000Y-12618000D03*
D10*
D20*
X14274000Y-12618000D03*
D10*
D20*
X14274000Y-12618000D03*
D10*
D19*
X14274000Y-12872000D03*
D10*
D20*
X14274000Y-12872000D03*
D10*
D20*
X14274000Y-12872000D03*
D10*
D19*
X14274000Y-13126000D03*
D10*
D20*
X14274000Y-13126000D03*
D10*
D20*
X14274000Y-13126000D03*
D10*
D19*
X14274000Y-13380000D03*
D10*
D20*
X14274000Y-13380000D03*
D10*
D20*
X14274000Y-13380000D03*
D10*
D19*
X14274000Y-13634000D03*
D10*
D20*
X14274000Y-13634000D03*
D10*
D20*
X14274000Y-13634000D03*
D10*
D19*
X12750000Y-13634000D03*
D10*
D20*
X12750000Y-13634000D03*
D10*
D20*
X12750000Y-13634000D03*
D10*
D19*
X12750000Y-13380000D03*
D10*
D20*
X12750000Y-13380000D03*
D10*
D20*
X12750000Y-13380000D03*
D10*
D19*
X12750000Y-13126000D03*
D10*
D20*
X12750000Y-13126000D03*
D10*
D20*
X12750000Y-13126000D03*
D10*
D19*
X12750000Y-12872000D03*
D10*
D20*
X12750000Y-12872000D03*
D10*
D20*
X12750000Y-12872000D03*
D10*
D19*
X12750000Y-12618000D03*
D10*
D20*
X12750000Y-12618000D03*
D10*
D20*
X12750000Y-12618000D03*
D10*
D19*
X12750000Y-12364000D03*
D10*
D20*
X12750000Y-12364000D03*
D10*
D20*
X12750000Y-12364000D03*
D10*
D19*
X12750000Y-12110000D03*
D10*
D20*
X12750000Y-12110000D03*
D10*
D20*
X12750000Y-12110000D03*
D10*
D19*
X12750000Y-11856000D03*
D10*
D20*
X12750000Y-11856000D03*
D10*
D20*
X12750000Y-11856000D03*
D10*
D19*
X12750000Y-11602000D03*
D10*
D20*
X12750000Y-11602000D03*
D10*
D20*
X12750000Y-11602000D03*
D10*
D19*
X12750000Y-11348000D03*
D10*
D20*
X12750000Y-11348000D03*
D10*
D20*
X12750000Y-11348000D03*
D10*
D19*
X12750000Y-11094000D03*
D10*
D20*
X12750000Y-11094000D03*
D10*
D20*
X12750000Y-11094000D03*
D10*
D19*
X12750000Y-10840000D03*
D10*
D20*
X12750000Y-10840000D03*
D10*
D20*
X12750000Y-10840000D03*
D10*
D19*
X12750000Y-10586000D03*
D10*
D20*
X12750000Y-10586000D03*
D10*
D20*
X12750000Y-10586000D03*
D10*
D19*
X12750000Y-10332000D03*
D10*
D20*
X12750000Y-10332000D03*
D10*
D20*
X12750000Y-10332000D03*
D10*
D21*
X12750000Y-10078000D03*
D10*
G36*
X16887330Y-08041730D02*
X16887310Y-08041750D01*
X16887290Y-08041770D01*
X16887270Y-08041790D01*
X16887330Y-08041730D01*
G37*
D11*
X16887350Y-08041700D03*
D10*
D11*
X16887350Y-08041700D03*
D10*
D11*
X16887350Y-08041700D03*
D10*
D11*
X16887350Y-08041700D03*
D10*
X16886441Y-08042618D02*
X16888218Y-08040841D01*
D12*
D10*
X16886135Y-08042161D02*
X16888484Y-08041378D01*
D12*
D10*
G36*
X17179830Y-08041730D02*
X17179810Y-08041750D01*
X17179790Y-08041770D01*
X17179770Y-08041790D01*
X17179830Y-08041730D01*
G37*
D11*
X17179850Y-08041700D03*
D10*
D11*
X17179850Y-08041700D03*
D10*
D11*
X17179850Y-08041700D03*
D10*
D11*
X17179850Y-08041700D03*
D10*
X17178941Y-08042618D02*
X17180718Y-08040841D01*
D12*
D10*
X17178635Y-08042161D02*
X17180984Y-08041378D01*
D12*
D10*
D22*
X18660000Y-09546200D03*
D10*
D23*
X18660000Y-10046200D03*
D10*
D23*
X18660000Y-10546200D03*
D10*
D21*
X15950000Y-08295699D03*
D10*
D19*
X15950000Y-08041700D03*
D10*
D20*
X15950000Y-08041700D03*
D10*
D20*
X15950000Y-08041700D03*
D10*
D19*
X15188000Y-08041700D03*
D10*
D20*
X15188000Y-08041700D03*
D10*
D20*
X15188000Y-08041700D03*
D10*
D19*
X15188000Y-08295700D03*
D10*
D20*
X15188000Y-08295700D03*
D10*
D20*
X15188000Y-08295700D03*
D10*
G36*
X14409980Y-08113780D02*
X14409960Y-08113800D01*
X14409940Y-08113820D01*
X14409920Y-08113840D01*
X14409980Y-08113780D01*
G37*
D11*
X14410000Y-08113750D03*
D10*
D11*
X14410000Y-08113750D03*
D10*
D11*
X14410000Y-08113750D03*
D10*
D11*
X14410000Y-08113750D03*
D10*
X14409091Y-08114668D02*
X14410868Y-08112891D01*
D12*
D10*
X14408785Y-08114211D02*
X14411134Y-08113428D01*
D12*
D10*
G36*
X14409980Y-08296280D02*
X14409960Y-08296300D01*
X14409940Y-08296320D01*
X14409920Y-08296340D01*
X14409980Y-08296280D01*
G37*
D11*
X14410000Y-08296250D03*
D10*
D11*
X14410000Y-08296250D03*
D10*
D11*
X14410000Y-08296250D03*
D10*
D11*
X14410000Y-08296250D03*
D10*
X14409091Y-08297168D02*
X14410868Y-08295391D01*
D12*
D10*
X14408785Y-08296711D02*
X14411134Y-08295928D01*
D12*
D10*
D23*
X18817200Y-07918700D03*
D10*
D23*
X18817200Y-08418700D03*
D10*
D24*
X10379500Y-06923500D03*
D10*
D25*
X9779500Y-06923500D03*
D10*
D25*
X10079500Y-07393500D03*
D10*
D26*
X13639700Y-09202700D03*
D10*
D27*
X13512700Y-09202700D03*
D10*
D28*
X13512700Y-09225200D03*
D10*
D28*
X13512700Y-09180200D03*
D10*
D27*
X13385700Y-09202700D03*
D10*
D28*
X13385700Y-09225200D03*
D10*
D28*
X13385700Y-09180200D03*
D10*
D21*
X14644500Y-09450500D03*
D10*
D19*
X14644500Y-09704500D03*
D10*
D20*
X14644500Y-09704500D03*
D10*
D20*
X14644500Y-09704500D03*
D10*
D19*
X15406500Y-09704500D03*
D10*
D20*
X15406500Y-09704500D03*
D10*
D20*
X15406500Y-09704500D03*
D10*
D19*
X15406500Y-09450500D03*
D10*
D20*
X15406500Y-09450500D03*
D10*
D20*
X15406500Y-09450500D03*
D10*
G36*
X11566830Y-08322630D02*
X11566810Y-08322650D01*
X11566790Y-08322670D01*
X11566770Y-08322690D01*
X11566830Y-08322630D01*
G37*
D11*
X11566850Y-08322600D03*
D10*
D11*
X11566850Y-08322600D03*
D10*
D11*
X11566850Y-08322600D03*
D10*
D11*
X11566850Y-08322600D03*
D10*
X11565941Y-08323518D02*
X11567718Y-08321741D01*
D12*
D10*
X11565635Y-08323061D02*
X11567984Y-08322278D01*
D12*
D10*
G36*
X11384330Y-08322630D02*
X11384310Y-08322650D01*
X11384290Y-08322670D01*
X11384270Y-08322690D01*
X11384330Y-08322630D01*
G37*
D11*
X11384350Y-08322600D03*
D10*
D11*
X11384350Y-08322600D03*
D10*
D11*
X11384350Y-08322600D03*
D10*
D11*
X11384350Y-08322600D03*
D10*
X11383441Y-08323518D02*
X11385218Y-08321741D01*
D12*
D10*
X11383135Y-08323061D02*
X11385484Y-08322278D01*
D12*
D10*
G36*
X14644480Y-09205530D02*
X14644460Y-09205550D01*
X14644440Y-09205570D01*
X14644420Y-09205590D01*
X14644480Y-09205530D01*
G37*
D11*
X14644500Y-09205500D03*
D10*
D11*
X14644500Y-09205500D03*
D10*
D11*
X14644500Y-09205500D03*
D10*
D11*
X14644500Y-09205500D03*
D10*
X14643591Y-09206418D02*
X14645368Y-09204641D01*
D12*
D10*
X14643285Y-09205961D02*
X14645634Y-09205178D01*
D12*
D10*
G36*
X14644480Y-09023030D02*
X14644460Y-09023050D01*
X14644440Y-09023070D01*
X14644420Y-09023090D01*
X14644480Y-09023030D01*
G37*
D11*
X14644500Y-09023000D03*
D10*
D11*
X14644500Y-09023000D03*
D10*
D11*
X14644500Y-09023000D03*
D10*
D11*
X14644500Y-09023000D03*
D10*
X14643591Y-09023918D02*
X14645368Y-09022141D01*
D12*
D10*
X14643285Y-09023461D02*
X14645634Y-09022678D01*
D12*
D10*
D29*
X12115000Y-09313999D03*
D10*
D30*
X12115000Y-07790000D03*
D10*
D31*
X12115000Y-07790000D03*
D10*
D31*
X12115000Y-07790000D03*
D10*
G36*
X15299980Y-12235029D02*
X15299960Y-12235050D01*
X15299940Y-12235069D01*
X15299920Y-12235089D01*
X15299980Y-12235029D01*
G37*
D11*
X15300000Y-12235000D03*
D10*
D11*
X15300000Y-12235000D03*
D10*
D11*
X15300000Y-12235000D03*
D10*
D11*
X15300000Y-12235000D03*
D10*
X15299091Y-12235918D02*
X15300868Y-12234141D01*
D12*
D10*
X15298785Y-12235461D02*
X15301134Y-12234678D01*
D12*
D10*
G36*
X15299980Y-12052529D02*
X15299960Y-12052550D01*
X15299940Y-12052569D01*
X15299920Y-12052589D01*
X15299980Y-12052529D01*
G37*
D11*
X15300000Y-12052500D03*
D10*
D11*
X15300000Y-12052500D03*
D10*
D11*
X15300000Y-12052500D03*
D10*
D11*
X15300000Y-12052500D03*
D10*
X15299091Y-12053418D02*
X15300868Y-12051641D01*
D12*
D10*
X15298785Y-12052961D02*
X15301134Y-12052178D01*
D12*
D10*
D32*
X15717200Y-11606200D03*
D10*
D32*
X15717200Y-11856200D03*
D10*
G36*
X12444980Y-10076279D02*
X12444960Y-10076300D01*
X12444940Y-10076319D01*
X12444920Y-10076339D01*
X12444980Y-10076279D01*
G37*
D11*
X12445000Y-10076250D03*
D10*
D11*
X12445000Y-10076250D03*
D10*
D11*
X12445000Y-10076250D03*
D10*
D11*
X12445000Y-10076250D03*
D10*
X12444091Y-10077168D02*
X12445868Y-10075391D01*
D12*
D10*
X12443785Y-10076711D02*
X12446134Y-10075928D01*
D12*
D10*
G36*
X12444980Y-09893779D02*
X12444960Y-09893800D01*
X12444940Y-09893819D01*
X12444920Y-09893839D01*
X12444980Y-09893779D01*
G37*
D11*
X12445000Y-09893750D03*
D10*
D11*
X12445000Y-09893750D03*
D10*
D11*
X12445000Y-09893750D03*
D10*
D11*
X12445000Y-09893750D03*
D10*
X12444091Y-09894668D02*
X12445868Y-09892891D01*
D12*
D10*
X12443785Y-09894211D02*
X12446134Y-09893428D01*
D12*
D10*
G36*
X12694980Y-09383780D02*
X12694960Y-09383800D01*
X12694940Y-09383820D01*
X12694920Y-09383840D01*
X12694980Y-09383780D01*
G37*
D11*
X12695000Y-09383750D03*
D10*
D11*
X12695000Y-09383750D03*
D10*
D11*
X12695000Y-09383750D03*
D10*
D11*
X12695000Y-09383750D03*
D10*
X12694091Y-09384668D02*
X12695868Y-09382891D01*
D12*
D10*
X12693785Y-09384211D02*
X12696134Y-09383428D01*
D12*
D10*
G36*
X12694980Y-09566280D02*
X12694960Y-09566300D01*
X12694940Y-09566320D01*
X12694920Y-09566340D01*
X12694980Y-09566280D01*
G37*
D11*
X12695000Y-09566250D03*
D10*
D11*
X12695000Y-09566250D03*
D10*
D11*
X12695000Y-09566250D03*
D10*
D11*
X12695000Y-09566250D03*
D10*
X12694091Y-09567168D02*
X12695868Y-09565391D01*
D12*
D10*
X12693785Y-09566711D02*
X12696134Y-09565928D01*
D12*
D10*
G36*
X14749480Y-08295030D02*
X14749460Y-08295050D01*
X14749440Y-08295070D01*
X14749420Y-08295090D01*
X14749480Y-08295030D01*
G37*
D11*
X14749500Y-08295000D03*
D10*
D11*
X14749500Y-08295000D03*
D10*
D11*
X14749500Y-08295000D03*
D10*
D11*
X14749500Y-08295000D03*
D10*
X14748591Y-08295918D02*
X14750368Y-08294141D01*
D12*
D10*
X14748285Y-08295461D02*
X14750634Y-08294678D01*
D12*
D10*
G36*
X14749480Y-08000030D02*
X14749460Y-08000050D01*
X14749440Y-08000069D01*
X14749420Y-08000090D01*
X14749480Y-08000030D01*
G37*
D11*
X14749500Y-07999999D03*
D10*
D11*
X14749500Y-07999999D03*
D10*
D11*
X14749500Y-07999999D03*
D10*
D11*
X14749500Y-07999999D03*
D10*
X14748591Y-08000918D02*
X14750368Y-07999141D01*
D12*
D10*
X14748285Y-08000461D02*
X14750634Y-07999678D01*
D12*
D10*
D32*
X15719700Y-09565500D03*
D10*
D32*
X15719700Y-09815500D03*
D10*
D33*
X11406000Y-06922532D03*
D10*
D34*
X11406000Y-07422532D03*
D10*
D22*
X18660000Y-11586200D03*
D10*
D23*
X18660000Y-12086200D03*
D10*
D23*
X18660000Y-12586200D03*
D10*
G36*
X12962180Y-06721230D02*
X12962160Y-06721250D01*
X12962140Y-06721269D01*
X12962120Y-06721290D01*
X12962180Y-06721230D01*
G37*
D11*
X12962200Y-06721199D03*
D10*
D11*
X12962200Y-06721199D03*
D10*
D11*
X12962200Y-06721199D03*
D10*
D11*
X12962200Y-06721199D03*
D10*
X12961291Y-06722118D02*
X12963068Y-06720341D01*
D12*
D10*
X12960985Y-06721661D02*
X12963334Y-06720878D01*
D12*
D10*
G36*
X12962180Y-07521230D02*
X12962160Y-07521250D01*
X12962140Y-07521270D01*
X12962120Y-07521290D01*
X12962180Y-07521230D01*
G37*
D11*
X12962200Y-07521200D03*
D10*
D11*
X12962200Y-07521200D03*
D10*
D11*
X12962200Y-07521200D03*
D10*
D11*
X12962200Y-07521200D03*
D10*
X12961291Y-07522118D02*
X12963068Y-07520341D01*
D12*
D10*
X12960985Y-07521661D02*
X12963334Y-07520878D01*
D12*
D10*
G36*
X11384330Y-08119430D02*
X11384310Y-08119450D01*
X11384290Y-08119470D01*
X11384270Y-08119490D01*
X11384330Y-08119430D01*
G37*
D11*
X11384350Y-08119400D03*
D10*
D11*
X11384350Y-08119400D03*
D10*
D11*
X11384350Y-08119400D03*
D10*
D11*
X11384350Y-08119400D03*
D10*
X11383441Y-08120318D02*
X11385218Y-08118541D01*
D12*
D10*
X11383135Y-08119861D02*
X11385484Y-08119078D01*
D12*
D10*
G36*
X11566830Y-08119430D02*
X11566810Y-08119450D01*
X11566790Y-08119470D01*
X11566770Y-08119490D01*
X11566830Y-08119430D01*
G37*
D11*
X11566850Y-08119400D03*
D10*
D11*
X11566850Y-08119400D03*
D10*
D11*
X11566850Y-08119400D03*
D10*
D11*
X11566850Y-08119400D03*
D10*
X11565941Y-08120318D02*
X11567718Y-08118541D01*
D12*
D10*
X11565635Y-08119861D02*
X11567984Y-08119078D01*
D12*
D10*
D35*
X10062200Y-12233700D03*
D10*
D35*
X10062200Y-12487700D03*
D10*
D35*
X10062200Y-12741700D03*
D10*
D35*
X10062200Y-12995700D03*
D10*
D35*
X10062200Y-13249700D03*
D10*
D35*
X10062200Y-13503700D03*
D10*
D35*
X12249200Y-13757700D03*
D10*
D35*
X12249200Y-13503700D03*
D10*
D35*
X12249200Y-13249700D03*
D10*
D35*
X12249200Y-12995700D03*
D10*
D35*
X12249200Y-12741700D03*
D10*
D35*
X12249200Y-12487700D03*
D10*
D21*
X14639700Y-11488700D03*
D10*
D19*
X14639700Y-11742700D03*
D10*
D20*
X14639700Y-11742700D03*
D10*
D20*
X14639700Y-11742700D03*
D10*
D19*
X15401700Y-11742700D03*
D10*
D20*
X15401700Y-11742700D03*
D10*
D20*
X15401700Y-11742700D03*
D10*
D19*
X15401700Y-11488700D03*
D10*
D20*
X15401700Y-11488700D03*
D10*
D20*
X15401700Y-11488700D03*
D10*
D36*
X11101200Y-09455599D03*
D10*
D36*
X11101200Y-10425600D03*
D10*
D37*
X17594700Y-08043700D03*
D10*
D37*
X17594700Y-08293700D03*
D10*
D37*
X18199700Y-08293700D03*
D10*
D37*
X18199700Y-08043700D03*
D10*
D38*
X11406000Y-06922532D03*
D10*
D38*
X11406000Y-07422532D03*
D10*
D38*
X10062200Y-12741700D03*
D10*
D38*
X10062200Y-12487700D03*
D10*
D38*
X10062200Y-12995700D03*
D10*
D38*
X10062200Y-13249700D03*
D10*
D38*
X12750000Y-10078000D03*
D10*
D38*
X12750000Y-10332000D03*
D10*
D38*
X12750000Y-11348000D03*
D10*
D38*
X12752200Y-11856700D03*
D10*
D38*
X12750000Y-12110000D03*
D10*
D38*
X12750000Y-12364000D03*
D10*
D38*
X9434700Y-09243700D03*
D10*
D39*
X10319700Y-11076200D03*
D10*
D38*
X10680000Y-09030000D03*
D10*
D38*
X11101200Y-09198800D03*
D10*
D39*
X17398000Y-08293700D03*
D10*
D11*
X12755450Y-11345450D02*
X12752200Y-11348700D01*
X12750000Y-10078000D02*
X12446750D01*
X12445000Y-10076250D01*
X12454700Y-11803700D02*
X11008700Y-13249700D01*
X10062200D01*
X12752200Y-10332700D02*
X12454700Y-10630200D01*
Y-11803700D01*
D40*
X11502200Y-07521200D02*
X11406000Y-07425000D01*
X12197200Y-07521200D02*
X12676200D01*
D11*
X15146300Y-07999999D02*
X15188000Y-08041700D01*
X15107200Y-10438700D02*
X15533450D01*
D41*
X15107200Y-10438700D02*
Y-11275200D01*
D40*
X12193400Y-07521200D02*
X12197200D01*
D11*
X15144700Y-12476199D02*
X15530950D01*
D34*
X9434700Y-09243700D02*
X9752200D01*
D41*
X15107200Y-10366199D02*
Y-10438700D01*
D11*
X14749500Y-07999999D02*
X15146300D01*
X14639700Y-11742700D02*
Y-11971200D01*
D41*
X15107200Y-11275200D02*
X14639700Y-11742700D01*
D34*
X9768900Y-07704100D02*
X10079500Y-07393500D01*
D40*
X11406000Y-07425000D02*
Y-07422532D01*
X11571200Y-07521200D02*
X11502200D01*
X12117200D02*
X12099700D01*
D42*
X10522200Y-11076200D02*
X11242200D01*
D40*
X10683900Y-08492800D02*
X9768900D01*
X10683900Y-08152800D02*
X9768900D01*
D41*
X14644500Y-09903500D02*
X15107200Y-10366199D01*
D11*
X11566850Y-07525550D02*
X11571200Y-07521200D01*
X12695000Y-09383750D02*
Y-07540000D01*
D34*
X9779500Y-06923500D02*
Y-07093500D01*
D11*
X12695000Y-07540000D02*
X12676200Y-07521200D01*
D15*
X9762200Y-09233700D02*
Y-08499500D01*
D40*
X12676200Y-07521200D02*
X12962200D01*
D34*
X9768900Y-08492800D02*
Y-07704100D01*
D11*
X10319700Y-11076200D02*
X10522200D01*
D40*
X11406000Y-07422532D02*
X10149590D01*
X12117200Y-07201199D02*
Y-07521200D01*
D11*
X14639700Y-11971200D02*
X15144700Y-12476199D01*
D15*
X9762200Y-08499500D02*
X9768900Y-08492800D01*
D40*
X12197200Y-07521200D02*
X12099700D01*
D11*
X11566850Y-08119400D02*
Y-07525550D01*
D41*
X14644500Y-09704500D02*
Y-09903500D01*
D40*
X12099700Y-07521200D02*
X11571200D01*
D15*
X9762200Y-09621950D02*
Y-09233700D01*
D34*
X9779500Y-07093500D02*
X10079500Y-07393500D01*
D40*
X10079499Y-07393500D02*
G03X10149590Y-07422532I70090J70090D01*
G01*
X10149590Y-07422532D02*
X10149590Y-07422532D01*
D11*
X13512700Y-09033199D02*
Y-09202700D01*
X13502200Y-09213200D02*
Y-10598700D01*
X13568450Y-08977449D02*
X13512700Y-09033199D01*
X13502200Y-10598700D02*
X12755450Y-11345450D01*
X13512700Y-09202700D02*
X13502200Y-09213200D01*
X13568450Y-08856200D02*
Y-08977449D01*
X13622200Y-10986700D02*
X12752200Y-11856700D01*
X15188000Y-08295700D02*
X14750200D01*
X13622200Y-09642205D02*
Y-10986700D01*
X14410000Y-08296250D02*
Y-08854405D01*
X14411250Y-08295000D02*
X14410000Y-08296250D01*
X14749500Y-08295000D02*
X14411250D01*
X14410000Y-08854405D02*
X13622200Y-09642205D01*
X14520400Y-09023000D02*
X13737200Y-09806200D01*
X14644500Y-09023000D02*
X14520400D01*
X13737200Y-11125700D02*
X12752200Y-12110700D01*
X13737200Y-09806200D02*
Y-11125700D01*
X13849700Y-11267200D02*
X12752200Y-12364700D01*
X14109700Y-09823700D02*
X13849700Y-10083700D01*
Y-11267200D01*
X14639700Y-11062450D02*
Y-10078700D01*
X14384700Y-09823700D02*
X14109700D01*
X14639700Y-10078700D02*
X14384700Y-09823700D01*
D40*
X12959700Y-06718699D02*
X12962200Y-06721199D01*
X15719700Y-09450500D02*
X16274000D01*
D11*
X13552200Y-06721199D02*
X13602100Y-06771100D01*
X13385950Y-08084950D02*
Y-08856200D01*
D43*
X10680000Y-09030000D02*
Y-08850000D01*
D40*
X15719700Y-09565500D02*
Y-09450500D01*
X15406500D02*
X15719700D01*
X15404200Y-11491200D02*
X15401700Y-11488700D01*
X12169700Y-06718699D02*
X12117200Y-06771200D01*
X11406000Y-06922532D02*
X12108532D01*
D34*
X10379500Y-06923500D02*
X11405032D01*
D40*
X15717200Y-11491200D02*
X15404200D01*
D11*
X13602100Y-06771100D02*
Y-08050050D01*
X14346300D02*
X13602100D01*
X12962200Y-06721199D02*
X13552200D01*
X14410000Y-08113750D02*
X14346300Y-08050050D01*
D40*
X12108532Y-06922532D02*
X12117200Y-06931199D01*
Y-06771200D02*
Y-06931199D01*
D11*
X13385950Y-09202450D02*
X13385700Y-09202700D01*
D40*
X15717200Y-11606200D02*
Y-11491200D01*
D11*
X13420850Y-08050050D02*
X13385950Y-08084950D01*
Y-08856200D02*
Y-09202450D01*
D40*
X16274000Y-09450500D02*
X16274700Y-09451200D01*
X12169700Y-06718699D02*
X12959700D01*
D11*
X13602100Y-08050050D02*
X13420850D01*
D34*
X11405032Y-06923500D02*
X11406000Y-06922532D01*
D40*
X15717200Y-11491200D02*
X16277200D01*
D11*
X17181850Y-08043700D02*
X17179850Y-08041700D01*
X17594700Y-08043700D02*
X17181850D01*
D40*
X18324700Y-08418700D02*
X18199700Y-08293700D01*
X18817200Y-08418700D02*
X18324700D01*
Y-07918700D02*
X18199700Y-08043700D01*
X18817200Y-07918700D02*
X18324700D01*
D11*
X11580000Y-08515000D02*
X11735000D01*
X11780000Y-08559999D02*
Y-10315000D01*
D34*
X9762200Y-12322050D02*
X9927849Y-12487700D01*
D11*
X11735000Y-08515000D02*
X11780000Y-08559999D01*
X11669400Y-10425600D02*
X11101200D01*
X11566850Y-08501849D02*
X11580000Y-08515000D01*
D15*
X11101200Y-10425600D02*
X9765850D01*
D34*
X9927849Y-12487700D02*
X10062200D01*
D11*
X11780000Y-10315000D02*
X11669400Y-10425600D01*
D34*
X9762200Y-10421949D02*
Y-12322050D01*
D15*
X9765850Y-10425600D02*
X9762200Y-10421949D01*
D11*
X11566850Y-08322600D02*
Y-08501849D01*
D40*
X11028800Y-08662800D02*
X11101200Y-08735200D01*
Y-09198800D02*
Y-09218800D01*
X10683900Y-08662800D02*
X11028800D01*
X11101200Y-09218800D02*
Y-09455599D01*
Y-08735200D02*
Y-09198800D01*
X15719700Y-09930500D02*
X15720950Y-09931749D01*
X16028450Y-10651199D02*
X15720950Y-10343700D01*
X16274700Y-10651199D02*
X16028450D01*
X15720950Y-10343700D02*
Y-09931749D01*
X15719700Y-09815500D02*
Y-09930500D01*
X15718450Y-12381199D02*
Y-11972450D01*
X15717200Y-11971200D01*
X16028450Y-12691199D02*
X15718450Y-12381199D01*
X16277200Y-12691199D02*
X16028450D01*
X15717200Y-11856200D02*
Y-11971200D01*
D11*
X15359700Y-10248700D02*
X15304700Y-10193700D01*
X15533450Y-10248700D02*
X15359700D01*
X15530950Y-12286199D02*
X15351200D01*
X15300000Y-12235000D01*
X16887350Y-08041700D02*
X16671850D01*
X16379350D02*
X16125350Y-08295700D01*
X15950000D01*
X14644500Y-09205500D02*
Y-09450500D01*
X15406500Y-09704500D02*
Y-09909399D01*
X15304700Y-10011200D01*
X10522200Y-11642200D02*
Y-12281700D01*
D42*
X11242200Y-11376200D02*
X10522200D01*
D11*
X10522200Y-12281700D02*
X10062200Y-12741700D01*
X10522200Y-11376200D02*
Y-11642200D01*
X14639700Y-11244950D02*
Y-11488700D01*
X15401700Y-11950799D02*
X15300000Y-12052500D01*
X15401700Y-11742700D02*
Y-11950799D01*
X17594700Y-08293700D02*
X17398000D01*
X11580000Y-08705000D02*
X11370000D01*
X10683900Y-08322600D02*
Y-08322800D01*
X11384350Y-08322600D02*
X10683900D01*
X11384350Y-08119400D02*
Y-08322600D01*
Y-08500650D02*
X11370000Y-08515000D01*
X11384350Y-08322600D02*
Y-08500650D01*
X12245000Y-09970000D02*
Y-11635000D01*
X10062200Y-12995700D02*
X10884300D01*
X12445000Y-09694999D02*
X12573750Y-09566250D01*
X12445000Y-09893750D02*
X12321250D01*
X12573750Y-09566250D02*
X12695000D01*
X12321250Y-09893750D02*
X12245000Y-09970000D01*
Y-11635000D02*
X10884300Y-12995700D01*
X12445000Y-09893750D02*
Y-09694999D01*
D02*
M02*
